<svg xmlns="http://www.w3.org/2000/svg" xmlns:xlink="http://www.w3.org/1999/xlink" width="76.852" height="77.152" viewBox="0 0 76.852 77.152"><defs><linearGradient id="a"><stop offset="0" style="stop-color:red;stop-opacity:1"/><stop offset="1" style="stop-color:#f60;stop-opacity:1"/></linearGradient><linearGradient xlink:href="#a" id="e" x1="143.5" x2="106.25" y1="22.902" y2="22.402" gradientTransform="translate(257.484 541.073)scale(.59537)" gradientUnits="userSpaceOnUse"/><linearGradient id="b"><stop offset="0" style="stop-color:#f3c87d;stop-opacity:.7589286"/><stop offset=".914" style="stop-color:#d69c45;stop-opacity:1"/><stop offset="1" style="stop-color:#e5ff6a;stop-opacity:1"/></linearGradient><linearGradient id="c"><stop offset="0" style="stop-color:#a5864d;stop-opacity:1"/><stop offset=".786" style="stop-color:#332815;stop-opacity:1"/><stop offset="1" style="stop-color:#1a1911;stop-opacity:1"/></linearGradient><linearGradient id="d"><stop offset="0" style="stop-color:#f0bf7a;stop-opacity:.91071427"/><stop offset=".642" style="stop-color:#f0bf7a;stop-opacity:.45490196"/><stop offset="1" style="stop-color:#f0bf7a;stop-opacity:0"/></linearGradient><radialGradient xlink:href="#b" id="f" cx="327.813" cy="574.355" r="39.672" fx="327.813" fy="574.355" gradientTransform="matrix(1 0 0 1.02323 0 -13.341)" gradientUnits="userSpaceOnUse"/><radialGradient xlink:href="#c" id="g" cx="316.585" cy="568.734" r="35.221" fx="316.585" fy="568.734" gradientTransform="matrix(.7474 .82267 -.75831 .68893 512.8 -84.985)" gradientUnits="userSpaceOnUse"/><radialGradient xlink:href="#d" id="h" cx="306.6" cy="555.367" r="6.005" fx="306.6" fy="555.367" gradientTransform="rotate(39.838 596.88 759.819)scale(.79293 1.42045)" gradientUnits="userSpaceOnUse"/></defs><text xml:space="preserve" x="313.895" y="555.453" style="font-size:23.81479454px;font-style:normal;font-weight:400;line-height:125%;letter-spacing:0;word-spacing:0;fill:url(#e);fill-opacity:1;stroke:none;font-family:StoneSerITCStd Medium;-inkscape-font-specification:StoneSerITCStd Medium" transform="translate(-278.803 -506.754)scale(.95851)"><tspan x="313.895" y="555.453" style="font-size:3.57221937px;fill:url(#e);fill-opacity:1">Created by Falzar FZ</tspan></text><path d="M325.125 533.768c-12.046.128-23.831 6.478-30.107 16.838-9.984 15.476-9.221 37.58 3.108 51.559 7.91 8.942 20.14 13.526 31.995 12.685 12.969-.255 25.58-7.742 31.67-19.258 5.398-9.438 6.922-20.84 4.725-31.458-2.298-13.991-13.543-26.225-27.386-29.441-4.606-.848-9.333-.962-14.005-.925" style="fill:url(#f);fill-opacity:1;stroke:none" transform="matrix(.96767 0 0 .94944 -278.798 -506.73)"/><path d="M325.427 538.322c-10.695.113-21.158 5.751-26.73 14.949-8.863 13.74-8.186 33.363 2.76 45.774 7.023 7.938 17.881 12.009 28.405 11.262 11.514-.226 22.71-6.874 28.117-17.097 4.793-8.38 6.145-18.502 4.195-27.929-2.04-12.422-12.024-23.283-24.313-26.139-4.09-.752-8.286-.854-12.434-.82" style="fill:url(#g);fill-opacity:1;stroke:none" transform="matrix(.96767 0 0 .94944 -278.798 -506.73)"/><path d="M311.715 548.433c-6.298-1.468-14.764 7.173-10.63 13.64 6.56 3.43 14.322-7.353 10.63-13.64" style="fill:url(#h);fill-opacity:1;stroke:none" transform="matrix(.96767 0 0 .94944 -278.798 -506.73)"/><g style="fill:#fffaf1;fill-opacity:1"><path d="M396.21 558.508c.165 1.17.552 4.943.552 4.943s-6.521-.036-8.25.09c-2.75.2-.962 4.48 1.97 2.91 2.293-.048 12.327-.023 12.327-.023-3.829 8.856-9.822 13.524-19.044 15.388.12 3.529 3.573 5.131 6.293 3.81 2.326-1.21 6.356-4.653 6.356-4.653s-.095 15.952-.074 19.52c.014 2.218 4.038 2.295 4.03.028-.011-3.33-.038-20.776-.038-20.776s1.844.91 3.652 2.22c1.71 1.241 5.297-.115 2.506-2.776-3.116-2.97-2.406-1.867-4.705-3.53 6.033-7.16 6.716-12.221 6.716-12.221l-7.692-.049s-.514-3.905-.706-5.023c-.47-2.738-4.275-2.573-3.893.142m27.614-1.174a670 670 0 0 1-.136 7.961l-8.831.004c-1.093-1.312-3.765.002-3.765.002l.091 21.091s1.693.79 3.067-.027l9.362-.081s.195 12.408.209 14.68c.016 2.647 3.712 2.41 3.818-.088.129-3.004.21-14.527.21-14.527l8.085-.054c1.609.993 3.45-.023 3.45-.023l-.009-17.749c.694-1.237 0-3.103 0-3.103s-1.294-.852-2.55-.026l-9.05-.097s-.174-5.194-.143-8.007c.027-2.374-3.784-2.502-3.808.044m-.014 16.91-8.236.138.089-6.026 8.129.014zm11.682-5.8-.025 5.881-7.794-.018.025-5.847zm.029 8.86.004 5.94h-7.877l.023-5.958zm-20.562.058 8.822-.083-.086 5.92-8.634.04z" style="fill:#fffaf1;fill-opacity:1;stroke:none" transform="matrix(.96767 0 0 .94944 -361.445 -506.129)"/><g style="fill:#fffaf1;fill-opacity:1"><path d="M351.317 537.718c-.13.544.049 1.222.719 1.138.896.177 2.463.134 2.48 1.405.364 4.88.112 9.814.182 14.716-.065 3.387.085 6.828-.197 10.183-.75.949-2.18.532-3.094 1.04-.259.525-.084 1.282.66.995 4.949-.076 9.92.179 14.855-.215 4.914-.623 9.586-3.666 11.661-8.321 1.739-3.497 1.847-7.582 1.099-11.363-.703-3.174-2.819-5.89-5.505-7.573-4.068-2.407-8.944-1.97-13.468-2.105-3.095-.015-6.191-.005-9.287-.008zm10.705 1.42c3.275-.02 5.5.1 8.027 2.507 3.061 2.773 3.927 7.176 3.784 11.194.024 4.472-1.66 9.486-5.766 11.66-2.339 1.201-3.667 1.328-6.246 1.235-1.38-.019-2.21-1.032-2.105-2.548-.203-8.014-.1-16.032-.17-24.048zm21.653-1.42c-.217.676.239 1.383 1.026 1.25 1.102-.017 2.759.313 2.663 1.657.204 8.074.018 16.177.025 24.263-.804 1.104-2.359.999-3.568 1.205-.297.4-.28 1.375.486 1.102h11.401c.305-.44.148-1.317-.604-1.2-1.026-.118-2.8-.127-2.943-1.384-.207-7.538-.193-15.109-.106-22.658.151-.806-.164-2.098.7-2.569.905-.38 1.929-.293 2.824-.595.476-.446.335-1.531-.562-1.179H383.79zm13.362 0c-.206.676.242 1.226.933 1.265 2.439.47 3.092 3.261 3.877 5.237 2.86 7.608 5.58 15.266 8.356 22.904.784-.06 2.323.546 2.621-.45 3.735-8.777 7.332-17.615 11.232-26.32.602-1.03 1.768-1.348 2.875-1.575.39-.368.368-1.45-.398-1.169H417.8c-.363.564-.012 1.47.777 1.359 1.155-.077 2.64.644 2.45 1.959-.306 1.858-1.317 3.587-1.923 5.38-2.116 5.184-3.447 7.972-5.766 13.071-2.372-6.81-4.407-11.17-6.466-18.077-.343-1.204.764-2.223 1.942-2.323.565-.037 1.407-.178 1.201-.938-.236-.917-1.949-.207-2.797-.43h-10.072zm30.91 0c-.16.57.06 1.266.855 1.21 1.104.122 2.844.125 3.055 1.384.243 7.644.1 15.32.023 22.976-.033.83.102 2-1.005 2.338-.868.466-1.962.181-2.818.508-.3.533-.139 1.36.75 1.061h11.83c.372-.483.097-1.354-.728-1.205-1.153-.08-3.122-.325-2.961-1.707a332 332 0 0 1-.102-23.248c-.17-1.152.995-1.977 2.22-1.979.692-.062 1.86-.046 1.67-.958.006-1.018-2.013-.249-2.849-.488h-9.819zm13.201 0c-.174.652.188 1.377.926 1.256 1.614.125 2.814 1.486 3.903 2.615-.056 7.15.127 14.321-.13 21.458.048 1.127-.54 2.198-1.62 2.564-.55.463-1.647.048-1.937.78-.357 1.17 1.003.735 1.7.804h8.392c.303-.555-.117-1.314-.805-1.2-1.386-.168-3.119-.546-3.54-2.123-.372-1.401-.069-2.965-.181-4.43-.008-5.479-.11-10.96.013-16.438 6.664 8.055 13.269 16.187 19.973 24.191 1.143.243 1.87-.134 1.528-1.42.079-8.153-.066-16.328.187-24.468.086-1.641 1.901-2.271 3.26-2.4.427-.241.45-1.46-.17-1.297h-9.66c-.314.495-.087 1.426.659 1.316 1.385.188 3.08.489 3.584 2.016.53 1.195.113 2.626.255 3.918.003 5.197.005 9.024-.13 14.22-6.366-7.533-10.54-13.91-16.856-21.47h-9.246zm33.256 0c-.138.544.052 1.222.76 1.138 1.103.061 2.826.386 2.72 1.774.21 7.253.11 14.56.054 21.833-.166 1.049.399 2.643-.911 3.153-.764.478-1.89.099-2.57.641-.253.667.113 1.184.91.938h20.52c.612-2.364.813-4.927 1.351-7.352-.371-.568-1.415-.144-1.425.521-.883 1.925-1.768 4.34-4.05 5.011-2.59.574-5.408.622-7.942-.143-1.028-.338-1.39-1.417-1.257-2.38-.091-3.419-.072-6.84-.116-10.26 2.022.155 4.227-.362 6.113.503 1.16.706 1.544 2.103 1.772 3.297.527.324 1.48.186 1.149-.626v-8.204c-.534-.34-1.431-.056-1.33.682-.182 1.483-1.388 2.816-3.012 2.8-1.52.127-3.064.077-4.596.102q-.041-6.003-.09-12.008c2.428.053 4.91-.104 7.305.077a3.76 3.76 0 0 1 2.478 2.558c.415.878.371 1.93.729 2.78 1.407.42 1.34-.742 1.24-1.749v-5.086c-1.875-.251-3.95-.037-5.9-.108h-13.79z" style="fill:#fffaf1;stroke:none;fill-opacity:1" transform="matrix(.37579 0 0 .34039 -120.121 -173.738)"/></g></g></svg>
