<svg xmlns="http://www.w3.org/2000/svg" xmlns:xlink="http://www.w3.org/1999/xlink" width="76.852" height="77.152"><defs><linearGradient id="b"><stop offset="0" style="stop-color:#fd0201;stop-opacity:1"/><stop offset="1" style="stop-color:#fe6c6c;stop-opacity:1"/></linearGradient><linearGradient id="a"><stop offset="0" style="stop-color:red;stop-opacity:1"/><stop offset="1" style="stop-color:#f60;stop-opacity:1"/></linearGradient><linearGradient xlink:href="#a" id="c" x1="143.5" x2="106.25" y1="22.902" y2="22.402" gradientTransform="translate(275.39 544.391)scale(.44916)" gradientUnits="userSpaceOnUse"/><linearGradient xlink:href="#b" id="d" x1="400" x2="367.803" y1="605.456" y2="473.538" gradientTransform="translate(-72.454 -3.847)scale(1.0072)" gradientUnits="userSpaceOnUse"/></defs><text xml:space="preserve" x="317.948" y="555.24" style="font-size:17.96657753px;font-style:normal;font-weight:400;line-height:125%;letter-spacing:0;word-spacing:0;fill:url(#c);fill-opacity:1;stroke:none;font-family:StoneSerITCStd Medium;-inkscape-font-specification:StoneSerITCStd Medium" transform="translate(-278.803 -506.754)scale(.95851)"><tspan x="317.948" y="555.24" style="font-size:2.69498682px;fill:url(#c);fill-opacity:1">Created by Falzar FZ</tspan></text><path d="M325.125 533.768c-12.046.128-23.831 6.478-30.107 16.838-9.984 15.476-9.221 37.58 3.108 51.559 7.91 8.942 20.14 13.526 31.995 12.685 12.969-.255 25.58-7.742 31.67-19.258 5.398-9.438 6.922-20.84 4.725-31.458-2.298-13.991-13.543-26.225-27.386-29.441-4.606-.848-9.333-.962-14.005-.925" style="fill:#010101;fill-opacity:1;stroke:none" transform="matrix(.96767 0 0 .94944 -278.642 -506.73)"/><path d="M327.848 534.536c-4.593.163-9.266.855-13.515 2.687-3.072.508-5.457.743-7.941 2.36-5.802 3.305-9.677 8.43-12.41 13.174-.888 2.09-2.43 4.792-2.91 6.999-.083 3.856-.03 6.988-.107 10.844-1.632.892-1.75 2.86-1.698 4.528.123 1.785-.333 3.79.473 5.427.973.713 1.948-1.352 2.859-.753 1.479 2.283 1.257 5.254 2.408 7.698.397 2.802 1.726 5.29 2.415 7.771 1.35 2.045.657 4.796 1.877 6.844 9.254 8.358 18.627 11.988 30 12.575 9.246.017 16.753-3.058 23.646-8.436 5.53-4.158 8.48-10.507 11.141-16.022.541-2.042.056-4.264.731-6.237.865-.922 2.256-1.964 2.15-3.367-.43-1.706-.099-3.564-.573-5.303-.25-4.077.664-8.29-.746-12.255-3.02-8.304-7.504-10.154-10.641-13.27 4.617 1.557 5.48 2.939 7.242 4.204.288.238.376-.159-.026-1.173-4.317-5.968-8.67-10.698-14.977-13.767-5.23-2.968-13.113-4.621-18.56-4.543-.279-.005-.558.008-.838.015" style="fill:url(#d);fill-opacity:1;stroke:none" transform="matrix(.96767 0 0 .94944 -278.642 -506.73)"/><g style="fill:#fff;fill-opacity:1"><g style="fill:#fff;fill-opacity:1"><path d="M376.623 559.299c1.749-5.162 9.049-15.084 14.879-18.051-4.411 5.115-8.605 12.711-9.693 16.639 5.04-9.492 8.88-12.572 12.769-19.758-7.056 2.29-16.272 12.736-17.955 21.17" style="fill:#ff7372;fill-opacity:1;stroke:none" transform="matrix(.96767 0 0 .94944 -361.102 -506.587)"/><path d="M396.88 546.684c-3.937 3.469-4.358 7.049-2.893 10.675.066-4.474.61-7.128 2.893-10.675" style="fill:#ff706f;fill-opacity:1;stroke:none" transform="matrix(.96767 0 0 .94944 -361.102 -506.587)"/><path d="M411.535 613.959c3.13.246 18.21 1.426 31.753-13.12 4.636-5.226 4.797-10.96 6.055-24.983.489-4.416.586-4.724 2.53-8.8-1.881 1.685-3.04 2.731-4.54 6.88-1.368 15.754-1.77 20.648-6.956 27.272-7.94 8.128-15.975 11.374-28.843 12.75" style="fill:#ff7274;fill-opacity:1;stroke:none" transform="matrix(.96767 0 0 .94944 -361.102 -506.587)"/><path d="M414.357 564.763c-1.59 1.992-2.783 5.826-.647 6.346 2.453.597 3.797-9.538 2.706-9.678-1.535.44-1.819 1.909-2.059 3.332" style="fill:#ff5d5e;fill-opacity:1;stroke:none" transform="matrix(.96767 0 0 .94944 -361.102 -506.587)"/></g><g style="fill:#fff;fill-opacity:1"><path d="M120.94 18.236c-2.393.984-1.709 5.241-1.72 6.462-.52 5.686-5.953 11.2-20.416 12.098-1.316 1.75.312 4.396 3.072 4.573 8.394-.083 14.653-3.366 19.434-10.943 4.796 3.505 12.509 7.989 17.306 11.435 1.812.366 3.218.113 5.356-1.361 1.849-1.275 3.453-3.014 1.63-3.93-6.627-.77-9.472-2.184-14.296-4.393-2.017-1.357-8.886-4.653-8.886-4.653s-.131-1.561.11-4.766c-.105-1.142 1.186-4.457-1.59-4.522m8.587 26.015c-.488 3.102 1.604 5.785 4.378 6.67 1.342.002 4.212-1.266 3.937-3.652-2.905-.188-5.468-1.256-8.315-3.018m-17.778.701c-1.583.937-3.454 1.05-6.757 1.208-1.245 2.02.515 5.627 3.213 5.413 1.714-1.287 4.698-4.155 4.848-6.27.048-.665-.972-.548-1.304-.35" style="fill:#fff;fill-opacity:1;stroke:none" transform="translate(-82.143 -.3)"/><path d="M104.716 24.928c-.499 2.81 2.157 5.809 5.008 3.433 1.137-1.035 4.556-4.081 2.778-5.302-5.427 2.571-6.448.225-7.786 1.87m25.094-1.753c-1.906.05 1.273 5.698 3.67 6.026 2.418.331 5.63-2.585 3.996-3.874-4.928-.299-4.494-.898-7.665-2.152" style="fill:#fff;fill-opacity:1;stroke:none" transform="translate(-82.143 -.3)"/><path d="M412.996 574.749c-2.472 1.037-1.766 5.52-1.777 6.806-.538 5.989-10.932 13.19-25.88 14.136-1.359 1.842.324 4.629 3.175 4.816 6.91.608 18.103-2.966 24.865-12.745 4.956 3.693 14.577 10.213 19.534 13.843 1.874.386 4.194.283 6.404-1.27 1.91-1.342 3.327-3.339 1.443-4.303-7.76-.288-11.838-3.519-16.425-5.96-2.085-1.43-9.81-5.54-9.81-5.54s-.134-1.644.114-5.02c-.107-1.202 1.227-4.694-1.643-4.763" style="fill:#fff;fill-opacity:1;stroke:none" transform="matrix(.96767 0 0 .94944 -360.946 -507.054)"/><g style="fill:#fff;fill-opacity:1"><path d="M395.605 540.249c-.023.166-.126.546.147.538.41.072.896.016 1.242.286.147.281.079.642.113.955.019 2.529.03 5.058-.007 7.586-.045.247.054.597-.177.76-.406.226-.901.138-1.324.277-.015.167-.12.557.163.522h4.715c.17-.074.14-.436.035-.55-.406-.104-.887-.015-1.247-.265-.262-.24-.161-.646-.2-.962-.01-1.09.008-2.181.011-3.272.787.036 1.585-.035 2.365.088.542.149.763.756.817 1.265.128.164.43.082.61.054.069-.545.01-1.117.03-1.673-.01-.572.021-1.153-.016-1.72-.138-.124-.423-.072-.6-.033-.076.393-.131.866-.506 1.105-.565.354-1.27.214-1.9.256h-.799v-4.589c.973.024 1.96-.06 2.923.087.536.08.829.6.985 1.07.12.267.123.584.26.839.18-.013.495.11.588-.091-.011-.832.021-1.673-.016-2.499-.17-.149-.476-.028-.698-.067h-7.438zm8.613 0c-.024.168-.137.555.157.548.422.07.91.019 1.274.257.237.292.115.699.16 1.04.02 2.66.005 5.321.01 7.982-.094.278-.376.425-.67.443-.308.067-.647.025-.937.132-.016.167-.128.557.175.522h5.089c.181-.075.15-.442.036-.556-.459-.079-.994-.012-1.398-.27-.306-.355-.158-.86-.208-1.279-.019-2.558-.04-5.117.028-7.674.008-.317.355-.446.64-.49.308-.095.68.004.956-.17.099-.14.07-.342.022-.49-.638-.066-1.3-.01-1.946-.028-1.114.01-2.238-.022-3.346.016l-.04.016zm6.321-.008c-.024.168-.138.553.158.546.437.068.94.02 1.319.27.18.222.092.553.133.815.028 2.615.014 5.23-.016 7.845-.016.239.045.574-.247.69-.42.2-.916.12-1.353.237-.017.167-.132.563.175.529h5.072c.183-.075.15-.438.037-.554-.463-.094-1.017-.045-1.416-.319-.247-.447-.107-.982-.144-1.468.003-.82.011-1.639.016-2.458l1.643.019c.998 1.363 1.945 2.761 2.987 4.095.275.334.645.65 1.124.648.694.033 1.4.049 2.089.026.196-.158-.014-.414-.199-.493-1.247-.735-2.052-1.928-2.973-2.968-.45-.533-.903-1.07-1.338-1.613 1.051-.368 2.098-1.028 2.476-2.07.329-.928.249-2.086-.549-2.791-.571-.57-1.408-.827-2.211-.932-1.703-.1-3.411-.049-5.116-.077-.541.008-1.09-.028-1.626.007zm4.703.648c.73.013 1.528-.011 2.136.432.723.5.788 1.434.74 2.21-.042.818-.446 1.723-1.318 2.03-.67.228-1.405.143-2.105.192-.34.073-.509-.02-.42-.359v-4.523zm7.087-.64c-.023.166-.125.546.144.54.359.073.768.012 1.09.212.31.234.175.676.217 1.01.028 2.681.048 5.364-.021 8.045-.005.337-.372.44-.64.468-.262.058-.552.025-.798.13-.012.167-.117.555.164.519 2.904-.01 5.809.025 8.712-.032.167-.13.104-.416.175-.608.127-.73.29-1.457.39-2.19-.095-.2-.399-.128-.563-.095-.31.703-.616 1.505-1.293 1.92-.853.402-1.838.349-2.763.3-.453-.055-1.035-.042-1.3-.497-.158-.314-.063-.694-.1-1.035l-.019-3.143c.75.041 1.521-.033 2.258.114.505.139.753.678.805 1.17.03.29.373.169.555.148.19-.144.04-.465.088-.678-.011-.897.021-1.804-.016-2.695-.119-.126-.36-.063-.528-.05-.174.106-.09.364-.185.529-.145.533-.706.829-1.226.785-.582.015-1.165.017-1.748.027v-4.271c.985.033 1.984-.027 2.96.087.565.097.911.64 1.038 1.173.089.24.08.517.198.74.181-.012.498.112.593-.09-.01-.832.022-1.673-.016-2.499-.168-.149-.47-.028-.69-.067h-7.406z" style="fill:#fff;fill-opacity:1;stroke:none" transform="matrix(.96767 0 0 .94944 -360.785 -507.03)"/></g></g></g></svg>