<svg xmlns="http://www.w3.org/2000/svg" xmlns:xlink="http://www.w3.org/1999/xlink" width="77.178" height="77.482" viewBox="0 0 77.178 77.482"><defs><linearGradient id="a"><stop offset="0" style="stop-color:red;stop-opacity:1"/><stop offset="1" style="stop-color:#f60;stop-opacity:1"/></linearGradient><linearGradient id="b"><stop offset="0" style="stop-color:#96cf6e;stop-opacity:1"/><stop offset=".664" style="stop-color:#62b840;stop-opacity:1"/><stop offset=".774" style="stop-color:#519b38;stop-opacity:1"/><stop offset="1" style="stop-color:#042500;stop-opacity:1"/></linearGradient><linearGradient xlink:href="#a" id="c" x1="143.5" x2="106.25" y1="22.902" y2="22.402" gradientTransform="translate(226.323 426.1)scale(.55062)" gradientUnits="userSpaceOnUse"/><radialGradient xlink:href="#b" id="d" cx="287.787" cy="537.695" r="39.672" fx="287.787" fy="537.695" gradientTransform="rotate(47.848 887.84 120.446)scale(2.37227 1.4677)" gradientUnits="userSpaceOnUse"/><radialGradient xlink:href="#b" id="e" cx="287.787" cy="537.695" r="39.672" fx="287.787" fy="537.695" gradientTransform="rotate(47.848 887.84 120.446)scale(2.37227 1.4677)" gradientUnits="userSpaceOnUse"/><filter id="f" width="1" height="1" x="0" y="0" color-interpolation-filters="sRGB"><feTurbulence baseFrequency=".065" result="result0" seed="179"/><feSpecularLighting result="result1" specularExponent="24.3" surfaceScale="2"><feDistantLight azimuth="225" elevation="45"/></feSpecularLighting><feDiffuseLighting diffuseConstant="1.21" in="result0" result="result2" surfaceScale="3"><feDistantLight azimuth="225" elevation="42"/></feDiffuseLighting><feBlend in2="SourceGraphic" mode="multiply" result="result91"/><feComposite in="result1" in2="result91" k2="1" k3="1" operator="arithmetic" result="result92"/><feComposite in2="SourceAlpha" operator="in" result="fbSourceGraphic"/><feGaussianBlur in="fbSourceGraphic" stdDeviation="3"/></filter></defs><text xml:space="preserve" x="278.494" y="439.398" style="font-size:22.02481842px;font-style:normal;font-weight:400;line-height:125%;letter-spacing:0;word-spacing:0;fill:url(#c);fill-opacity:1;stroke:none;font-family:StoneSerITCStd Medium;-inkscape-font-specification:StoneSerITCStd Medium" transform="translate(-255.697 -413.621)"><tspan x="278.494" y="439.398" style="font-size:3.30372286px;fill:url(#c);fill-opacity:1">Created by Falzar FZ</tspan></text><path d="M291.684 413.827c-11.657.121-23.06 6.15-29.134 15.987-9.66 14.693-8.922 35.68 3.008 48.952 7.655 8.49 19.49 12.842 30.96 12.044 12.55-.242 24.753-7.35 30.646-18.284 5.224-8.961 6.699-19.787 4.573-29.868-2.224-13.284-13.106-24.9-26.5-27.953-4.458-.805-9.032-.914-13.553-.878" style="fill:url(#d);fill-opacity:1;stroke:none" transform="translate(-255.697 -413.621)"/><path d="M291.684 413.827c-11.657.121-23.06 6.15-29.134 15.987-9.66 14.693-8.922 35.68 3.008 48.952 7.655 8.49 19.49 12.842 30.96 12.044 12.55-.242 24.753-7.35 30.646-18.284 5.224-8.961 6.699-19.787 4.573-29.868-2.224-13.284-13.106-24.9-26.5-27.953-4.458-.805-9.032-.914-13.553-.878" style="fill:url(#e);fill-opacity:1;stroke:none;filter:url(#f);opacity:.6" transform="translate(-235.408 -382.435)scale(.93106)"/><g style="fill:#fff;fill-opacity:1"><path d="M129.074 25.414c-5.485 1.899-14.187 2.294-19.353 2.456-3.595.113-.556 3.661 1.741 3.323 4.674-.688 6.827-.254 6.827-.254l.014 5.73-10.76-.12-.067 13.852 8.346-.082s-2.407 5.088-6.248 8.763c-.388 1.235.464 2.05 2.192 2.053 4.625.008 13.447-.144 17.74-.382.69-2.717-.405-6.614-2.28-8.221-1.175-1.006-2.682-.787-2.398.782a36 36 0 0 0 1.032 4.132l-9.314-.032s2.013-3.38 3.95-7.104c3.962.015 11.389.101 11.389.101l-.006-13.805-9.164-.035.026-6.29s3.536-.928 8.077-1.805c2.203-.425-.036-3.653-1.744-3.061zm-17.359 14.31 6.704-.01-.424 6.686-6.229-.028zm16.622 0-.12 6.788-6.553-.083.539-6.64zm-28.642-20.38s.128 26.649.07 29.194c-2.203 6.936-6.969 7.31-10.572 9.761 7.381 11.603 13.554-1.56 15.325-12.559.185-7.11.03-22.617.03-22.617l30.273.065s-.831 20.922.924 27.614c3.741 13.688 12.24 16.656 14.97 6.005-4.464-1.44-6.769-.865-9.982-6.502-2.16-8.393-1.024-31.043-1.024-31.043z" style="fill:#fff;fill-opacity:1;stroke:none" transform="translate(-82.393 1.166)"/><g style="fill:#fff;fill-opacity:1"><path d="M354.221 533.395c-.743.19-2.002-.3-2.476.45.12 1.128 1.802.814 2.377 1.639 1.975 2.052 2.12 5.181 3.116 7.754 1.97 6.577 3.639 13.311 5.642 19.837 1.698.541 2.712-.869 3.081-2.254 2.519-6.809 4.364-12.335 6.972-19.106 2.931 7.454 4.355 13.809 7.273 21.236 1.726.726 3.207-.715 3.49-2.15 2.577-8.15 4.795-16.462 7.742-24.462.493-1.291 2.108-1.251 2.825-2.255.096-1.009-1.486-.519-2.063-.689-2.278.119-4.664-.275-6.88.225-.494.937 1.124 1.07 1.686 1.255 1.325.239 2.014 1.71 1.387 2.915-1.672 6.104-3.39 12.357-5.371 18.273-3.014-7.252-5.48-14.814-8.374-22.095-1.657-.558-1.962.966-2.357 2.246-2.474 6.584-4.82 13.478-7.44 19.842-1.885-6.386-3.644-12.85-5.166-19.318-.193-1.462 1.393-2 2.497-2.219.826-.237.387-1.306-.398-1.058-2.502-.14-5.047-.05-7.563-.066m44.844 0c-.736.202-2.057-.33-2.483.486.094 1.206 1.788.699 2.54 1.211 1.247.587.47 2.382.76 3.459.107 7.37.296 14.785-.084 22.13-.553 1.287-2.26.66-3.088 1.451-.605 1.172.747.989 1.544.943h9.392c.473-1.082.824-1.45-1.053-1.45-1.026-.044-1.932-.858-1.722-1.973-.118-7.758-.173-15.547.036-23.291-.03-1.685 1.495-1.432 2.554-1.885.638-.41.05-1.207-.584-1.015-2.585-.142-5.213-.048-7.812-.066m12.437 0c-.572.032-2.064-.147-1.637.878.792.73 2.127.57 2.925 1.4.935.8 2.203 1.654 1.784 3.117-.132 7.034.122 14.109-.333 21.116-.415 1.493-2.244 1.458-3.323 2.132-.488.628-.128 1.394.769 1.037h9.164c.47-1.086-.817-1.507-1.651-1.48-1.631-.044-2.838-1.467-2.714-3.117-.19-6.527.155-13.094.151-19.637 6.526 7.805 11.312 15.861 18.046 23.472-.736.824 3.427 1.32 3.094-.043.064-8.37-.138-16.779.227-25.126.24-1.645 1.916-2.177 3.259-2.61.572-.296.407-1.25-.327-1.073-3.075-.05-6.252-.262-9.3.116-.689.568.415 1.358 1.04 1.189 1.47.064 3.3.862 3.137 2.675.282 6.224.007 10.678.043 16.92-6.233-7.588-10.045-13.594-16.313-21.138-1.893.004-6.149.157-8.041.172m34.186.008c-.543-.037-2.288-.06-1.558.906.918.694 3.084.274 3.02 1.914.256 8.143.353 16.362.018 24.502-.59 1.136-2.139.743-3.095 1.146-.317.54-.229 1.568.655 1.204 5.845-.173 11.824.498 17.545-.986 6.14-1.77 10.597-8 10.4-14.496.465-5.12-2.182-10.471-6.872-12.588-4.335-2.182-9.302-1.271-13.959-1.57a265 265 0 0 0-6.154-.033m10.778 1.428c3.388.05 4.825.34 7.122 3.227 3.333 3.512 3.392 8.89 2.924 13.473-.64 4.28-3.292 8.508-7.64 9.492-2.333.484-2.344.701-4.647.043-1.871-1.092-1.107-3.71-1.34-5.54-.083-6.939-.089-13.879-.14-20.818z" style="fill:#fff;fill-opacity:1;stroke:none" transform="matrix(.37288 0 0 .33333 -116.061 -171.033)"/></g></g></svg>
