<svg xmlns="http://www.w3.org/2000/svg" xmlns:xlink="http://www.w3.org/1999/xlink" width="77.38" height="77.407"><defs><linearGradient id="a"><stop offset="0" style="stop-color:red;stop-opacity:1"/><stop offset="1" style="stop-color:#f60;stop-opacity:1"/></linearGradient><linearGradient xlink:href="#b" id="e" x1="58.993" x2="17.057" y1="11.446" y2="64.836" gradientUnits="userSpaceOnUse"/><linearGradient id="b"><stop offset="0" style="stop-color:#281f18;stop-opacity:1"/><stop offset=".175" style="stop-color:#101010;stop-opacity:1"/><stop offset=".345" style="stop-color:#14181c;stop-opacity:1"/><stop offset=".535" style="stop-color:#49382b;stop-opacity:1"/><stop offset=".713" style="stop-color:#312318;stop-opacity:1"/><stop offset=".817" style="stop-color:#3d291d;stop-opacity:1"/><stop offset="1" style="stop-color:#1d1f21;stop-opacity:1"/></linearGradient><linearGradient xlink:href="#c" id="g" x1="61.45" x2="13.028" y1="66.66" y2="2.656" gradientTransform="matrix(.99945 0 0 .97706 337.245 494.063)" gradientUnits="userSpaceOnUse"/><linearGradient id="c"><stop offset="0" style="stop-color:#eaeaeb;stop-opacity:1"/><stop offset=".364" style="stop-color:#a3a3a3;stop-opacity:1"/><stop offset=".629" style="stop-color:#dad9d9;stop-opacity:1"/><stop offset=".756" style="stop-color:#979797;stop-opacity:1"/><stop offset=".795" style="stop-color:#858585;stop-opacity:1"/><stop offset=".885" style="stop-color:#f0f3f5;stop-opacity:1"/><stop offset="1" style="stop-color:#a4a4a4;stop-opacity:1"/></linearGradient><linearGradient xlink:href="#a" id="d" x1="143.5" x2="106.25" y1="22.902" y2="22.402" gradientTransform="translate(311.259 521.366)scale(.4843)" gradientUnits="userSpaceOnUse"/><filter id="f" width="1" height="1" x="0" y="0" color-interpolation-filters="sRGB"><feTurbulence baseFrequency=".037" numOctaves="3" result="result0"/><feSpecularLighting result="result1" specularExponent="24.3" surfaceScale="2"><feDistantLight azimuth="225" elevation="45"/></feSpecularLighting><feDiffuseLighting diffuseConstant="1.21" in="result0" result="result2" surfaceScale="3"><feDistantLight azimuth="225" elevation="42"/></feDiffuseLighting><feBlend in2="SourceGraphic" mode="multiply" result="result91"/><feComposite in="result1" in2="result91" k2="1" k3="1" operator="arithmetic" result="result92"/><feComposite in2="SourceAlpha" operator="in" result="result2"/></filter><filter id="h" width="1" height="1" x="0" y="0" color-interpolation-filters="sRGB"><feTurbulence baseFrequency=".037" numOctaves="3" result="result0"/><feSpecularLighting result="result1" specularExponent="24.3" surfaceScale="2"><feDistantLight azimuth="225" elevation="45"/></feSpecularLighting><feDiffuseLighting diffuseConstant="1.21" in="result0" result="result2" surfaceScale="3"><feDistantLight azimuth="225" elevation="42"/></feDiffuseLighting><feBlend in2="SourceGraphic" mode="multiply" result="result91"/><feComposite in="result1" in2="result91" k2="1" k3="1" operator="arithmetic" result="result92"/><feComposite in2="SourceAlpha" operator="in" result="result2"/></filter></defs><text xml:space="preserve" x="357.146" y="533.062" style="font-size:19.37196732px;font-style:normal;font-weight:400;line-height:125%;letter-spacing:0;word-spacing:0;fill:url(#d);fill-opacity:1;stroke:none;display:inline;font-family:StoneSerITCStd Medium;-inkscape-font-specification:StoneSerITCStd Medium" transform="translate(-336.317 -493.656)"><tspan x="357.146" y="533.062" style="font-size:2.90579534px;fill:url(#d);fill-opacity:1">Created by Falzar FZ</tspan></text><path d="M72.952 36.456c0 20.103-16.365 36.4-36.552 36.4S-.152 56.558-.152 36.455c0-20.104 16.365-36.4 36.552-36.4s36.552 16.296 36.552 36.4z" style="fill:url(#e);fill-opacity:1;stroke:#131b40;stroke-width:0;stroke-miterlimit:4.0999999;stroke-opacity:1;stroke-dasharray:none;display:inline" transform="matrix(1.05182 0 0 1.05625 .397 .2)"/><path d="M72.952 36.456c0 20.103-16.365 36.4-36.552 36.4S-.152 56.558-.152 36.455c0-20.104 16.365-36.4 36.552-36.4s36.552 16.296 36.552 36.4z" style="opacity:.1;fill:#666;fill-opacity:1;stroke:#131b40;stroke-width:0;stroke-miterlimit:4.0999999;stroke-opacity:1;stroke-dasharray:none;display:inline;filter:url(#f)" transform="matrix(1.05182 0 0 1.05625 .397 .2)"/><path d="M366.3 505.679s3.085 5.345 3.76 11.449c.546 4.932-.92 10.36-3.447 13.863-5.38-3.038-6.215-9.068-6.215-9.068s-13.171 12.638-2.03 27.415c3.933.864 9.098 1.37 12.685.94-2.022-6.132 3.774-16.295 3.774-16.295s2.762 9.988 6.715 6.626c1.128 3.365-1.633 3.859 1.562 9.618-19.738 2.31-32.305-1.432-32.305-1.432s8.946 14.316 26.26 14.48c19.134-1.461 26.013-16.78 26.013-16.78s-7.616 4.326-17.407 3.671c2.062-.692 10.935.767 12.868-10.93 2.381-15.04-10.564-24.733-10.564-24.733s2.463 6.672-.203 11.4c-7.003-23.056-21.465-20.224-21.465-20.224m9.43-7.157c-12.129.067-23.86 7.06-29.78 17.625-6.35 10.939-5.958 25.394.928 35.997 4.092 6.355 10.27 11.378 17.406 13.933 7.181 2.753 15.265 2.825 22.573.48 9.587-2.968 17.594-10.432 21.533-19.628 3.663-8.755 3.621-19.034-.286-27.703-4.92-11.447-16.455-19.61-28.86-20.583a35 35 0 0 0-3.514-.12m.555 4.106c10.184-.1 20.146 5.32 25.662 13.847 6.482 9.612 6.737 22.968.622 32.817-4.453 7.354-12.047 12.744-20.552 14.292-2.824.472-5.732.587-8.587.43-9.749-.821-18.778-6.695-23.7-15.077-3.093-5.175-4.515-11.26-4.135-17.278.405-11.3 7.75-21.835 18.063-26.343a31 31 0 0 1 12.627-2.688" style="fill:#070506;fill-opacity:1;stroke:none;display:inline" transform="translate(-336.317 -493.656)"/><path d="M365.042 504.67s3.084 5.344 3.76 11.448c.545 4.932-.92 10.36-3.448 13.864-5.38-3.039-6.215-9.069-6.215-9.069s-13.171 12.638-2.03 27.416c3.933.863 9.098 1.37 12.685.94-2.022-6.132 3.774-16.295 3.774-16.295s2.763 9.988 6.716 6.626c1.128 3.365-1.634 3.859 1.561 9.618-19.738 2.31-32.305-1.432-32.305-1.432s7.76 12.418 22.815 14.256c1.109.135-4.037 3.085 3.327 2.152 7.626.28 3.021-2.239 4.364-2.507 15.916-3.173 21.767-16.2 21.767-16.2s-7.616 4.325-17.407 3.67c2.062-.692 10.936.767 12.868-10.931 2.381-15.039-10.564-24.732-10.564-24.732s2.463 6.671-.203 11.4c-7.003-23.057-21.465-20.224-21.465-20.224m9.43-7.157c-12.13.067-23.861 7.06-29.78 17.624-6.352 10.94-5.959 25.394.927 35.998 4.092 6.355 10.271 11.378 17.406 13.933 7.182 2.752 15.265 2.824 22.573.48 9.588-2.968 17.594-10.432 21.533-19.629 3.664-8.754 3.621-19.033-.286-27.703-4.92-11.446-16.455-19.61-28.86-20.582a35 35 0 0 0-3.513-.121m.554 4.106c10.184-.101 20.146 5.32 25.662 13.847 6.483 9.611 6.737 22.967.622 32.817-4.453 7.354-12.046 12.744-20.552 14.291-2.824.473-5.732.588-8.587.43-9.748-.82-18.778-6.695-23.7-15.076-3.092-5.176-4.515-11.26-4.134-17.279.404-11.3 7.749-21.834 18.062-26.343a31 31 0 0 1 12.627-2.687" style="fill:url(#g);fill-opacity:1;stroke:none;display:inline" transform="translate(-336.317 -493.656)"/><path d="M365.042 504.67s3.084 5.344 3.76 11.448c.545 4.932-.92 10.36-3.448 13.864-5.38-3.039-6.215-9.069-6.215-9.069s-13.171 12.638-2.03 27.416c3.933.863 9.098 1.37 12.685.94-2.022-6.132 3.774-16.295 3.774-16.295s2.763 9.988 6.716 6.626c1.128 3.365-1.634 3.859 1.561 9.618-19.738 2.31-32.305-1.432-32.305-1.432s7.76 12.418 22.815 14.256c1.109.135-4.037 3.085 3.327 2.152 7.626.28 3.021-2.239 4.364-2.507 15.916-3.173 21.767-16.2 21.767-16.2s-7.616 4.325-17.407 3.67c2.062-.692 10.936.767 12.868-10.931 2.381-15.039-10.564-24.732-10.564-24.732s2.463 6.671-.203 11.4c-7.003-23.057-21.465-20.224-21.465-20.224m9.43-7.157c-12.13.067-23.861 7.06-29.78 17.624-6.352 10.94-5.959 25.394.927 35.998 4.092 6.355 10.271 11.378 17.406 13.933 7.182 2.752 15.265 2.824 22.573.48 9.588-2.968 17.594-10.432 21.533-19.629 3.664-8.754 3.621-19.033-.286-27.703-4.92-11.446-16.455-19.61-28.86-20.582a35 35 0 0 0-3.513-.121m.554 4.106c10.184-.101 20.146 5.32 25.662 13.847 6.483 9.611 6.737 22.967.622 32.817-4.453 7.354-12.046 12.744-20.552 14.291-2.824.473-5.732.588-8.587.43-9.748-.82-18.778-6.695-23.7-15.076-3.092-5.176-4.515-11.26-4.134-17.279.404-11.3 7.749-21.834 18.062-26.343a31 31 0 0 1 12.627-2.687" style="opacity:.07000002;fill:#666;fill-opacity:1;stroke:none;display:inline;filter:url(#h)" transform="translate(-336.317 -493.656)"/></svg>
