<svg xmlns="http://www.w3.org/2000/svg" xmlns:xlink="http://www.w3.org/1999/xlink" width="77.312" height="77.314"><defs><linearGradient id="c"><stop offset="0" style="stop-color:red;stop-opacity:1"/><stop offset="1" style="stop-color:#f60;stop-opacity:1"/></linearGradient><linearGradient xlink:href="#a" id="e" x1="9.933" x2="65.161" y1="60.072" y2="26.923" gradientUnits="userSpaceOnUse"/><linearGradient id="a"><stop offset="0" style="stop-color:#4d3c2f;stop-opacity:1"/><stop offset=".229" style="stop-color:#251a11;stop-opacity:1"/><stop offset=".377" style="stop-color:#33221a;stop-opacity:1"/><stop offset=".517" style="stop-color:#442e1d;stop-opacity:1"/><stop offset=".632" style="stop-color:#49321b;stop-opacity:1"/><stop offset=".856" style="stop-color:#1e150e;stop-opacity:1"/><stop offset="1" style="stop-color:#1b1d1e;stop-opacity:1"/></linearGradient><linearGradient xlink:href="#b" id="g" x1="59.556" x2="13.456" y1="68.01" y2="10.726" gradientTransform="matrix(1.00807 0 0 .95488 335.887 495.72)" gradientUnits="userSpaceOnUse"/><linearGradient id="b"><stop offset="0" style="stop-color:#eaeaeb;stop-opacity:1"/><stop offset=".178" style="stop-color:#a3a3a3;stop-opacity:1"/><stop offset=".476" style="stop-color:#dad9d9;stop-opacity:1"/><stop offset=".696" style="stop-color:#f0f3f5;stop-opacity:1"/><stop offset="1" style="stop-color:#a4a4a4;stop-opacity:1"/></linearGradient><linearGradient xlink:href="#c" id="d" x1="143.5" x2="106.25" y1="22.902" y2="22.402" gradientTransform="translate(310.095 520.096)scale(.4843)" gradientUnits="userSpaceOnUse"/><filter id="f" width="1" height="1" x="0" y="0" color-interpolation-filters="sRGB"><feTurbulence baseFrequency=".037" numOctaves="3" result="result0"/><feSpecularLighting result="result1" specularExponent="24.3" surfaceScale="2"><feDistantLight azimuth="225" elevation="45"/></feSpecularLighting><feDiffuseLighting diffuseConstant="1.21" in="result0" result="result2" surfaceScale="3"><feDistantLight azimuth="225" elevation="42"/></feDiffuseLighting><feBlend in2="SourceGraphic" mode="multiply" result="result91"/><feComposite in="result1" in2="result91" k2="1" k3="1" operator="arithmetic" result="result92"/><feComposite in2="SourceAlpha" operator="in" result="result2"/></filter><filter id="h" width="1" height="1" x="0" y="0" color-interpolation-filters="sRGB"><feTurbulence baseFrequency=".037" numOctaves="3" result="result0"/><feSpecularLighting result="result1" specularExponent="24.3" surfaceScale="2"><feDistantLight azimuth="225" elevation="45"/></feSpecularLighting><feDiffuseLighting diffuseConstant="1.21" in="result0" result="result2" surfaceScale="3"><feDistantLight azimuth="225" elevation="42"/></feDiffuseLighting><feBlend in2="SourceGraphic" mode="multiply" result="result91"/><feComposite in="result1" in2="result91" k2="1" k3="1" operator="arithmetic" result="result92"/><feComposite in2="SourceAlpha" operator="in" result="result2"/></filter></defs><g style="display:inline"><text xml:space="preserve" x="355.983" y="531.793" style="font-size:19.37196732px;font-style:normal;font-weight:400;line-height:125%;letter-spacing:0;word-spacing:0;fill:url(#d);fill-opacity:1;stroke:none;font-family:StoneSerITCStd Medium;-inkscape-font-specification:StoneSerITCStd Medium" transform="translate(-335.18 -492.436)"><tspan x="355.983" y="531.793" style="font-size:2.90579534px;fill:url(#d);fill-opacity:1">Created by Falzar FZ</tspan></text><path d="M72.952 36.456c0 20.103-16.365 36.4-36.552 36.4S-.152 56.558-.152 36.455 16.213.055 36.4.055s36.552 16.296 36.552 36.4z" style="fill:url(#e);fill-opacity:1;stroke:#131b40;stroke-width:0;stroke-miterlimit:4.0999999;stroke-opacity:1;stroke-dasharray:none" transform="matrix(1.05182 0 0 1.05625 .37 .15)"/></g><g style="opacity:.11000001;fill:#666;display:inline;filter:url(#f)" transform="rotate(15 1702.62 1851.47)scale(-1 1)"><text xml:space="preserve" x="355.983" y="531.793" style="font-size:19.37196732px;font-style:normal;font-weight:400;line-height:125%;letter-spacing:0;word-spacing:0;fill:#666;fill-opacity:1;stroke:none;font-family:StoneSerITCStd Medium;-inkscape-font-specification:StoneSerITCStd Medium"><tspan x="355.983" y="531.793" style="font-size:2.90579534px;fill:#666;fill-opacity:1">Created by Falzar FZ</tspan></text><path d="M72.952 36.456c0 20.103-16.365 36.4-36.552 36.4S-.152 56.558-.152 36.455 16.213.055 36.4.055s36.552 16.296 36.552 36.4z" style="fill:#666;fill-opacity:1;stroke:#131b40;stroke-width:0;stroke-miterlimit:4.0999999;stroke-opacity:1;stroke-dasharray:none" transform="matrix(1.05182 0 0 1.05625 335.55 492.586)"/></g><path d="M388.944 514.59c-4.074.083-6.827 2.115-9.256 4.603-1.916 2.205-3.744 4.67-3.744 4.67l3.42 6.616s8.393-13.876 17.1-4.48c1.824 3.898 3.725 9.15-.538 14.437-5.284 4.928-10.911 2.054-13.786-2.123-4.41-8.172-5.84-11.008-9.483-18.859-3.838-4.943-15.914-7.068-21.893-.545-4.116 6.461-6.263 21.02 1.355 28.683 3.44 4.387 12.47 4.473 18.617.509 2.098-2.13 5.082-5.74 5.082-5.74l-3.872-7.192s-4.907 11.14-14.92 6.12c-2.59-3.233-3.785-12.897.513-16.801 3.494-2.984 9.996-1.559 11.559 2.426 2.834 4.862 5.35 11.566 11.592 20.59 6.068 4.698 15.83 4.41 21.472-1.226 4.195-5.206 4.66-19.857.033-26.593-2.616-3.809-9.177-5.177-13.251-5.095m-13.363-16.245c-12.129.067-23.861 7.06-29.78 17.624-6.351 10.94-5.958 25.394.928 35.998 4.091 6.355 10.27 11.378 17.405 13.933 7.182 2.752 15.266 2.824 22.573.48 9.588-2.968 17.594-10.432 21.533-19.629 3.664-8.754 3.622-19.033-.285-27.703-4.92-11.446-16.456-19.61-28.86-20.582a35 35 0 0 0-3.514-.121m.555 4.106c10.183-.101 20.146 5.32 25.661 13.847 6.483 9.611 6.738 22.967.623 32.817-4.453 7.354-12.047 12.744-20.552 14.291-2.824.473-5.733.588-8.588.43-9.748-.82-18.777-6.695-23.7-15.076-3.092-5.175-4.515-11.26-4.134-17.279.405-11.3 7.749-21.834 18.062-26.343a31 31 0 0 1 12.628-2.687" style="fill:#070506;fill-opacity:1;stroke:none;display:inline" transform="translate(-336.344 -493.705)"/><path d="M387.835 513.758c-4.074.083-6.827 2.115-9.257 4.603-1.915 2.205-3.743 4.67-3.743 4.67l3.42 6.616s8.392-13.876 17.1-4.48c1.824 3.898 3.725 9.15-.539 14.436-5.283 4.929-10.91 2.055-13.786-2.122-4.41-8.172-5.84-11.008-9.482-18.859-3.838-4.943-15.914-7.068-21.893-.545-4.116 6.461-6.263 21.02 1.355 28.683 3.44 4.387 12.47 4.473 18.616.509 2.099-2.13 5.083-5.74 5.083-5.74l-3.872-7.192s-4.908 11.14-14.92 6.12c-2.59-3.233-3.786-12.897.512-16.801 3.494-2.984 9.996-1.559 11.56 2.426 2.834 4.861 5.35 11.566 11.592 20.59 6.067 4.698 15.83 4.41 21.472-1.226 4.194-5.206 4.66-19.857.033-26.593-2.616-3.809-9.178-5.177-13.251-5.095m-13.363-16.245c-12.13.067-23.861 7.06-29.78 17.624-6.352 10.94-5.959 25.394.927 35.998 4.092 6.355 10.271 11.378 17.406 13.933 7.182 2.752 15.265 2.824 22.573.48 9.588-2.968 17.594-10.432 21.533-19.629 3.664-8.754 3.621-19.033-.286-27.703-4.92-11.446-16.455-19.61-28.86-20.582a35 35 0 0 0-3.513-.121m.554 4.106c10.184-.101 20.146 5.32 25.662 13.847 6.483 9.611 6.737 22.967.622 32.817-4.453 7.354-12.046 12.744-20.552 14.291-2.824.473-5.732.588-8.587.43-9.748-.82-18.778-6.695-23.7-15.076-3.092-5.176-4.515-11.26-4.134-17.279.404-11.3 7.749-21.834 18.062-26.343a31 31 0 0 1 12.627-2.687" style="fill:url(#g);fill-opacity:1;stroke:none;display:inline" transform="translate(-336.344 -493.705)"/><path d="M387.835 513.758c-4.074.083-6.827 2.115-9.257 4.603-1.915 2.205-3.743 4.67-3.743 4.67l3.42 6.616s8.392-13.876 17.1-4.48c1.824 3.898 3.725 9.15-.539 14.436-5.283 4.929-10.91 2.055-13.786-2.122-4.41-8.172-5.84-11.008-9.482-18.859-3.838-4.943-15.914-7.068-21.893-.545-4.116 6.461-6.263 21.02 1.355 28.683 3.44 4.387 12.47 4.473 18.616.509 2.099-2.13 5.083-5.74 5.083-5.74l-3.872-7.192s-4.908 11.14-14.92 6.12c-2.59-3.233-3.786-12.897.512-16.801 3.494-2.984 9.996-1.559 11.56 2.426 2.834 4.861 5.35 11.566 11.592 20.59 6.067 4.698 15.83 4.41 21.472-1.226 4.194-5.206 4.66-19.857.033-26.593-2.616-3.809-9.178-5.177-13.251-5.095m-13.363-16.245c-12.13.067-23.861 7.06-29.78 17.624-6.352 10.94-5.959 25.394.927 35.998 4.092 6.355 10.271 11.378 17.406 13.933 7.182 2.752 15.265 2.824 22.573.48 9.588-2.968 17.594-10.432 21.533-19.629 3.664-8.754 3.621-19.033-.286-27.703-4.92-11.446-16.455-19.61-28.86-20.582a35 35 0 0 0-3.513-.121m.554 4.106c10.184-.101 20.146 5.32 25.662 13.847 6.483 9.611 6.737 22.967.622 32.817-4.453 7.354-12.046 12.744-20.552 14.291-2.824.473-5.732.588-8.587.43-9.748-.82-18.778-6.695-23.7-15.076-3.092-5.176-4.515-11.26-4.134-17.279.404-11.3 7.749-21.834 18.062-26.343a31 31 0 0 1 12.627-2.687" style="opacity:.08999999;fill:#666;fill-opacity:1;stroke:none;display:inline;filter:url(#h)" transform="translate(-336.344 -493.705)"/></svg>