<svg xmlns="http://www.w3.org/2000/svg" xmlns:xlink="http://www.w3.org/1999/xlink" width="77.407" height="77.407" viewBox="0 0 77.407 77.407"><defs><linearGradient xlink:href="#a" id="e" x1="9.634" x2="57.681" y1="56.496" y2="13.216" gradientUnits="userSpaceOnUse"/><linearGradient id="a"><stop offset="0" style="stop-color:#33281f;stop-opacity:1"/><stop offset=".143" style="stop-color:#1e150e;stop-opacity:1"/><stop offset=".375" style="stop-color:#281a13;stop-opacity:1"/><stop offset=".616" style="stop-color:#442d1d;stop-opacity:1"/><stop offset=".758" style="stop-color:#493220;stop-opacity:1"/><stop offset=".867" style="stop-color:#422c1f;stop-opacity:1"/><stop offset="1" style="stop-color:#1f2123;stop-opacity:1"/></linearGradient><linearGradient xlink:href="#b" id="d" x1="143.5" x2="106.25" y1="22.902" y2="22.402" gradientTransform="translate(310.095 520.096)scale(.4843)" gradientUnits="userSpaceOnUse"/><linearGradient id="b"><stop offset="0" style="stop-color:red;stop-opacity:1"/><stop offset="1" style="stop-color:#f60;stop-opacity:1"/></linearGradient><linearGradient xlink:href="#c" id="g" x1="62.842" x2="12.979" y1="10.666" y2="61.406" gradientUnits="userSpaceOnUse"/><linearGradient id="c"><stop offset="0" style="stop-color:#eaeaeb;stop-opacity:1"/><stop offset=".169" style="stop-color:#a3a3a3;stop-opacity:1"/><stop offset=".32" style="stop-color:#d4d4d4;stop-opacity:1"/><stop offset=".497" style="stop-color:#a4a4a4;stop-opacity:1"/><stop offset=".613" style="stop-color:#ababab;stop-opacity:1"/><stop offset=".828" style="stop-color:#f0f3f5;stop-opacity:1"/><stop offset="1" style="stop-color:#a4a4a4;stop-opacity:1"/></linearGradient><filter id="h" width="1" height="1" x="0" y="0" color-interpolation-filters="sRGB"><feTurbulence baseFrequency=".037" numOctaves="3" result="result0"/><feSpecularLighting result="result1" specularExponent="24.3" surfaceScale="2"><feDistantLight azimuth="225" elevation="45"/></feSpecularLighting><feDiffuseLighting diffuseConstant="1.21" in="result0" result="result2" surfaceScale="3"><feDistantLight azimuth="225" elevation="42"/></feDiffuseLighting><feBlend in2="SourceGraphic" mode="multiply" result="result91"/><feComposite in="result1" in2="result91" k2="1" k3="1" operator="arithmetic" result="result92"/><feComposite in2="SourceAlpha" operator="in" result="result2"/></filter><filter id="f" width="1" height="1" x="0" y="0" color-interpolation-filters="sRGB"><feTurbulence baseFrequency=".037" numOctaves="3" result="result0"/><feSpecularLighting result="result1" specularExponent="24.3" surfaceScale="2"><feDistantLight azimuth="225" elevation="45"/></feSpecularLighting><feDiffuseLighting diffuseConstant="1.21" in="result0" result="result2" surfaceScale="3"><feDistantLight azimuth="225" elevation="42"/></feDiffuseLighting><feBlend in2="SourceGraphic" mode="multiply" result="result91"/><feComposite in="result1" in2="result91" k2="1" k3="1" operator="arithmetic" result="result92"/><feComposite in2="SourceAlpha" operator="in" result="result2"/></filter></defs><g style="display:inline"><text xml:space="preserve" x="355.983" y="531.793" style="font-size:19.37196732px;font-style:normal;font-weight:400;line-height:125%;letter-spacing:0;word-spacing:0;fill:url(#d);fill-opacity:1;stroke:none;font-family:StoneSerITCStd Medium;-inkscape-font-specification:StoneSerITCStd Medium" transform="translate(-335.13 -492.386)"><tspan x="355.983" y="531.793" style="font-size:2.90579534px;fill:url(#d);fill-opacity:1">Created by Falzar FZ</tspan></text><path d="M72.952 36.456c0 20.103-16.365 36.4-36.552 36.4S-.152 56.558-.152 36.455 16.213.055 36.4.055s36.552 16.296 36.552 36.4z" style="fill:url(#e);fill-opacity:1;stroke:#131b40;stroke-width:0;stroke-miterlimit:4.0999999;stroke-opacity:1;stroke-dasharray:none" transform="matrix(1.05182 0 0 1.05625 .42 .2)"/><path d="M72.952 36.456a36.552 36.4 0 1 1-73.104 0 36.552 36.4 0 1 1 73.104 0z" style="fill:#666;fill-opacity:1;stroke:#131b40;stroke-width:0;stroke-miterlimit:4.0999999000000003;stroke-opacity:1;stroke-dasharray:none;display:inline;opacity:.12;filter:url(#f)" transform="matrix(1.05182 0 0 1.05625 .42 .2)"/><path d="M374.642 497.117c-12.13.067-23.862 7.061-29.781 17.625-6.351 10.94-5.949 25.397.937 36 4.092 6.355 10.272 11.383 17.406 13.938 7.182 2.753 15.255 2.845 22.563.5 9.587-2.968 17.592-10.46 21.531-19.656 3.664-8.755 3.626-19.019-.281-27.688-4.92-11.446-16.47-19.621-28.875-20.594a34 34 0 0 0-3.5-.125m-5.688 4.782v24.031c-7.453.29-14.918.157-22.375.156-.501-.051-1.065.018-1.593-.031 1.826-9.636 8.579-18.184 17.593-22.125a30.7 30.7 0 0 1 6.375-2.031m12.657 0c7.795 1.682 14.906 6.472 19.25 13.187 2.18 3.234 3.64 6.883 4.406 10.688-7.965.12-15.91.174-23.875.25.076-8.04.096-16.087.219-24.125m16.937 36.25c2.242.01 4.485-.002 6.719.062-.689 3.417-1.934 6.711-3.781 9.688-4.35 7.182-11.705 12.47-19.97 14.156-.199-3.188-.045-6.429-.093-9.625.016-4.754.048-9.496.063-14.25 5.688-.014 11.374-.032 17.062-.031m-41.812.093c4.073 0 8.146.012 12.218 0v23.875c-8.414-1.74-15.967-7.164-20.312-14.562a29.7 29.7 0 0 1-3.563-9.219c3.885-.07 7.77-.092 11.657-.094" style="fill:#070506;fill-opacity:1;stroke:none;display:inline" transform="translate(-335.13 -492.386)"/><path d="M38.156 3.844c-12.129.067-23.862 7.06-29.781 17.625-6.35 10.939-5.949 25.396.938 36 4.091 6.354 10.271 11.382 17.406 13.937 7.182 2.753 15.254 2.845 22.562.5 9.588-2.967 17.592-10.46 21.532-19.656 3.663-8.754 3.625-19.018-.282-27.687-4.92-11.447-16.47-19.622-28.875-20.594a34 34 0 0 0-3.5-.125M32.47 8.625v24.031c-7.453.29-14.918.157-22.375.157-.502-.052-1.066.018-1.594-.032 1.826-9.636 8.579-18.184 17.594-22.125a30.7 30.7 0 0 1 6.375-2.031m12.656 0c7.796 1.682 14.906 6.472 19.25 13.188 2.18 3.233 3.64 6.882 4.406 10.687-7.964.12-15.91.174-23.875.25.077-8.04.096-16.086.219-24.125m16.938 36.25c2.241.01 4.484-.002 6.718.063-.688 3.416-1.933 6.71-3.781 9.687-4.35 7.182-11.705 12.47-19.969 14.156-.2-3.188-.045-6.429-.093-9.625.016-4.754.047-9.496.062-14.25 5.688-.013 11.374-.032 17.063-.031m-41.813.094c4.073-.001 8.146.011 12.219 0v23.875c-8.415-1.741-15.97-7.165-20.314-14.564a29.7 29.7 0 0 1-3.562-9.218c3.885-.07 7.77-.093 11.656-.094" style="fill:url(#g);fill-opacity:1;stroke:none;display:inline" transform="translate(.023)"/><path d="M373.31 496.23c-12.13.067-23.862 7.061-29.782 17.625-6.35 10.94-5.948 25.396.938 36 4.091 6.355 10.271 11.383 17.406 13.938 7.182 2.752 15.255 2.844 22.562.5 9.588-2.968 17.593-10.46 21.532-19.657 3.663-8.754 3.625-19.018-.282-27.687-4.92-11.446-16.47-19.621-28.875-20.594a34 34 0 0 0-3.5-.125m-5.688 4.781v24.032c-7.453.29-14.918.156-22.375.156-.502-.052-1.065.018-1.594-.031 1.826-9.636 8.58-18.185 17.594-22.125a30.7 30.7 0 0 1 6.375-2.032m12.656 0c7.796 1.683 14.906 6.473 19.25 13.188 2.18 3.233 3.64 6.883 4.406 10.687-7.964.12-15.91.174-23.875.25.077-8.039.096-16.086.22-24.125m16.938 36.25c2.241.01 4.485-.002 6.718.063-.688 3.416-1.933 6.711-3.78 9.687-4.35 7.183-11.706 12.471-19.97 14.157-.199-3.189-.045-6.43-.093-9.625.016-4.754.048-9.496.062-14.25 5.689-.014 11.374-.033 17.063-.032m-41.813.094c4.073 0 8.146.012 12.219 0v23.875c-8.414-1.74-15.968-7.165-20.313-14.562a29.7 29.7 0 0 1-3.562-9.22c3.885-.07 7.77-.092 11.656-.093" style="opacity:.07999998;fill:#666;fill-opacity:1;stroke:none;display:inline;filter:url(#h)" transform="translate(-335.13 -492.386)"/></g></svg>
