<svg xmlns="http://www.w3.org/2000/svg" xmlns:xlink="http://www.w3.org/1999/xlink" width="77.407" height="77.407"><defs><linearGradient xlink:href="#a" id="d" x1="143.5" x2="106.25" y1="22.902" y2="22.402" gradientTransform="translate(310.095 520.096)scale(.4843)" gradientUnits="userSpaceOnUse"/><linearGradient id="a"><stop offset="0" style="stop-color:red;stop-opacity:1"/><stop offset="1" style="stop-color:#f60;stop-opacity:1"/></linearGradient><linearGradient xlink:href="#b" id="e" x1="21.119" x2="57.681" y1="66.648" y2="13.216" gradientUnits="userSpaceOnUse"/><linearGradient id="b"><stop offset="0" style="stop-color:#3f3126;stop-opacity:1"/><stop offset=".253" style="stop-color:#1a120c;stop-opacity:1"/><stop offset=".475" style="stop-color:#211710;stop-opacity:1"/><stop offset=".622" style="stop-color:#523723;stop-opacity:1"/><stop offset=".726" style="stop-color:#493122;stop-opacity:1"/><stop offset=".844" style="stop-color:#4b3223;stop-opacity:1"/><stop offset="1" style="stop-color:#1f2123;stop-opacity:1"/></linearGradient><linearGradient xlink:href="#c" id="g" x1="5.98" x2="67.667" y1="55.566" y2="18.743" gradientTransform="matrix(.93345 0 0 .93125 337.884 495.244)" gradientUnits="userSpaceOnUse"/><linearGradient id="c"><stop offset="0" style="stop-color:#eaeaeb;stop-opacity:1"/><stop offset=".178" style="stop-color:#a3a3a3;stop-opacity:1"/><stop offset=".373" style="stop-color:#dad9d9;stop-opacity:1"/><stop offset=".491" style="stop-color:#979797;stop-opacity:1"/><stop offset=".613" style="stop-color:#858585;stop-opacity:1"/><stop offset=".828" style="stop-color:#f0f3f5;stop-opacity:1"/><stop offset="1" style="stop-color:#a4a4a4;stop-opacity:1"/></linearGradient><filter id="h" width="1" height="1" x="0" y="0" color-interpolation-filters="sRGB"><feTurbulence baseFrequency=".037" numOctaves="3" result="result0"/><feSpecularLighting result="result1" specularExponent="24.3" surfaceScale="2"><feDistantLight azimuth="225" elevation="45"/></feSpecularLighting><feDiffuseLighting diffuseConstant="1.21" in="result0" result="result2" surfaceScale="3"><feDistantLight azimuth="225" elevation="42"/></feDiffuseLighting><feBlend in2="SourceGraphic" mode="multiply" result="result91"/><feComposite in="result1" in2="result91" k2="1" k3="1" operator="arithmetic" result="result92"/><feComposite in2="SourceAlpha" operator="in" result="result2"/></filter><filter id="f" width="1" height="1" x="0" y="0" color-interpolation-filters="sRGB"><feTurbulence baseFrequency=".037" numOctaves="3" result="result0"/><feSpecularLighting result="result1" specularExponent="24.3" surfaceScale="2"><feDistantLight azimuth="225" elevation="45"/></feSpecularLighting><feDiffuseLighting diffuseConstant="1.21" in="result0" result="result2" surfaceScale="3"><feDistantLight azimuth="225" elevation="42"/></feDiffuseLighting><feBlend in2="SourceGraphic" mode="multiply" result="result91"/><feComposite in="result1" in2="result91" k2="1" k3="1" operator="arithmetic" result="result92"/><feComposite in2="SourceAlpha" operator="in" result="result2"/></filter></defs><g style="display:inline"><text xml:space="preserve" x="355.983" y="531.793" style="font-size:19.37196732px;font-style:normal;font-weight:400;line-height:125%;letter-spacing:0;word-spacing:0;fill:url(#d);fill-opacity:1;stroke:none;font-family:StoneSerITCStd Medium;-inkscape-font-specification:StoneSerITCStd Medium" transform="translate(-335.13 -492.386)"><tspan x="355.983" y="531.793" style="font-size:2.90579534px;fill:url(#d);fill-opacity:1">Created by Falzar FZ</tspan></text><path d="M72.952 36.456c0 20.103-16.365 36.4-36.552 36.4S-.152 56.558-.152 36.455 16.213.055 36.4.055s36.552 16.296 36.552 36.4z" style="fill:url(#e);fill-opacity:1;stroke:#131b40;stroke-width:0;stroke-miterlimit:4.0999999;stroke-opacity:1;stroke-dasharray:none" transform="matrix(1.05182 0 0 1.05625 .42 .2)"/><path d="M72.952 36.456a36.552 36.4 0 1 1-73.104 0 36.552 36.4 0 1 1 73.104 0z" style="fill:#666;fill-opacity:1;stroke:#131b40;stroke-width:0;stroke-miterlimit:4.0999999000000003;stroke-opacity:1;stroke-dasharray:none;display:inline;opacity:.12;filter:url(#f)" transform="matrix(1.05182 0 0 1.05625 .42 .2)"/><path d="M374.484 498.095c-6.218.15-12.544 1.46-17.794 4.918-9.492 5.964-15.778 16.852-15.694 28.112-.095 4.599.442 9.228 2.042 13.561 3.123 9.027 10.725 16.11 19.573 19.498 4.237 1.65 8.817 2.326 13.36 2.066 3.894-.003 7.807-.472 11.435-1.95 7.494-3.051 14.075-8.553 17.94-15.685 4.17-8.063 5.01-17.775 2.538-26.482-1.892-6.453-6.017-12.034-10.94-16.53-6.034-5.5-14.424-7.689-22.46-7.508m-.992 2.91-8.547 22.175-20.973 7.48s.019-2.811.116-4.54c2.167-11.694 11.566-21.624 23.132-24.475 1.45-.252 6.272-.64 6.272-.64m3.267.116s2.762.052 4.871.175h.03a31.44 31.44 0 0 1 16.83 9.69c3.859 4.154 6.534 9.396 7.672 14.959.31 1.74-.029 5.034-.029 5.034l-20.71-7.159zm-.525 10.157 6.68 13.183-6.651 6.635zm-8.897 13.154 6.68 6.635-19.865.029zm28.762 8.846-13.853 5.33-6.012-5.3zm-22.082.03.029 19.818-6.68-13.183zm-30.045.465 21.06 6.635 7.614 22.321s-7.983-.683-9.976-1.513c-8.917-3.805-15.84-11.825-18.202-21.215-.183-1.674-.496-6.228-.496-6.228m62.19 1.193s.328 1.469 0 3.492c-1.176 5.278-3.53 10.36-7.175 14.406-4.482 5.168-10.71 8.924-17.444 10.214-2.194.05-3.676-.174-3.676-.174l7.001-22.729zm-31.519-37.61c-12.129.067-23.86 7.06-29.78 17.624-6.35 10.94-5.958 25.395.928 35.998 4.092 6.355 10.27 11.378 17.405 13.933 7.182 2.752 15.266 2.824 22.574.48 9.587-2.968 17.594-10.432 21.533-19.629 3.663-8.754 3.621-19.033-.286-27.703-4.92-11.446-16.456-19.61-28.86-20.582a35 35 0 0 0-3.514-.121m.555 4.106c10.184-.1 20.146 5.32 25.662 13.847 6.482 9.611 6.737 22.967.622 32.817-4.453 7.354-12.047 12.744-20.552 14.291-2.824.473-5.732.588-8.587.43-9.749-.82-18.778-6.695-23.7-15.076-3.093-5.175-4.515-11.26-4.135-17.279.405-11.3 7.75-21.834 18.063-26.343a31 31 0 0 1 12.627-2.687" style="fill:#070506;fill-opacity:1;stroke:none;display:inline" transform="translate(-335.13 -492.386)"/><path d="M373.148 496.982c-6.217.15-12.543 1.46-17.793 4.918-9.492 5.964-15.778 16.852-15.694 28.112-.095 4.6.442 9.228 2.042 13.561 3.123 9.027 10.725 16.11 19.573 19.498 4.237 1.65 8.816 2.326 13.36 2.067 3.894-.003 7.806-.473 11.435-1.95 7.493-3.052 14.075-8.554 17.94-15.686 4.17-8.063 5.01-17.775 2.537-26.482-1.891-6.452-6.016-12.034-10.939-16.53-6.034-5.5-14.424-7.688-22.46-7.508m-.991 2.91-8.547 22.175-20.974 7.48s.02-2.811.117-4.54c2.167-11.694 11.566-21.624 23.132-24.475 1.45-.252 6.272-.64 6.272-.64m3.267.116s2.762.052 4.871.175h.03a31.44 31.44 0 0 1 16.83 9.69c3.859 4.154 6.534 9.397 7.672 14.96.31 1.74-.029 5.034-.029 5.034l-20.71-7.16zm-.525 5.26 6.68 18.08-6.651 6.635zm-7.562 18.05 5.345 6.636-25.095.029zm34.437 8.848-20.497 5.08-6.378-5.051zm-29.092.029.029 25.381-6.346-19.303zm-30.046.465 21.061 6.635 7.614 22.321s-7.983-.683-9.977-1.513c-8.916-3.805-15.84-11.825-18.202-21.215-.182-1.674-.496-6.228-.496-6.228m62.191 1.193s.328 1.469 0 3.493c-1.176 5.277-3.531 10.36-7.176 14.405-4.481 5.168-10.71 8.924-17.443 10.214-2.194.051-3.676-.174-3.676-.174l7-22.728zm-31.519-37.61c-12.129.067-23.861 7.06-29.78 17.625-6.351 10.939-5.958 25.394.928 35.997 4.091 6.355 10.27 11.378 17.405 13.933 7.182 2.753 15.266 2.825 22.573.48 9.588-2.968 17.594-10.432 21.533-19.628 3.664-8.755 3.622-19.034-.285-27.703-4.92-11.447-16.456-19.61-28.86-20.583a35 35 0 0 0-3.514-.12m.555 4.106c10.183-.1 20.146 5.32 25.662 13.847 6.482 9.612 6.737 22.968.622 32.817-4.453 7.354-12.047 12.744-20.552 14.292-2.824.472-5.733.587-8.588.43-9.748-.821-18.777-6.695-23.7-15.077-3.092-5.175-4.515-11.26-4.134-17.278.405-11.3 7.749-21.835 18.062-26.343a31 31 0 0 1 12.628-2.688" style="fill:url(#g);fill-opacity:1;stroke:none;display:inline" transform="translate(-335.13 -492.386)"/><path d="M373.148 496.982c-6.217.15-12.543 1.46-17.793 4.918-9.492 5.964-15.778 16.852-15.694 28.112-.095 4.6.442 9.228 2.042 13.561 3.123 9.027 10.725 16.11 19.573 19.498 4.237 1.65 8.816 2.326 13.36 2.067 3.894-.003 7.806-.473 11.435-1.95 7.493-3.052 14.075-8.554 17.94-15.686 4.17-8.063 5.01-17.775 2.537-26.482-1.891-6.452-6.016-12.034-10.939-16.53-6.034-5.5-14.424-7.688-22.46-7.508m-.991 2.91-8.547 22.175-20.974 7.48s.02-2.811.117-4.54c2.167-11.694 11.566-21.624 23.132-24.475 1.45-.252 6.272-.64 6.272-.64m3.267.116s2.762.052 4.871.175h.03a31.44 31.44 0 0 1 16.83 9.69c3.859 4.154 6.534 9.397 7.672 14.96.31 1.74-.029 5.034-.029 5.034l-20.71-7.16zm-.525 10.157 6.68 13.183-6.651 6.635zm-8.897 13.154 6.68 6.635-19.865.029zm28.761 8.847-13.184 6.664-6.68-6.635zm-22.081.029.029 19.818-6.68-13.183zm-30.046.465 21.061 6.635 7.614 22.321s-7.983-.683-9.977-1.513c-8.916-3.805-15.84-11.825-18.202-21.215-.182-1.674-.496-6.228-.496-6.228m62.191 1.193s.328 1.47 0 3.493c-1.176 5.277-3.531 10.36-7.176 14.405-4.481 5.168-10.71 8.924-17.443 10.214-2.194.051-3.676-.174-3.676-.174l7-22.728zm-31.519-37.61c-12.129.067-23.861 7.06-29.78 17.625-6.351 10.939-5.958 25.394.928 35.997 4.091 6.355 10.27 11.378 17.405 13.933 7.182 2.753 15.266 2.825 22.573.48 9.588-2.968 17.594-10.432 21.533-19.628 3.664-8.755 3.622-19.034-.285-27.703-4.92-11.447-16.456-19.61-28.86-20.583a35 35 0 0 0-3.514-.12m.555 4.106c10.183-.1 20.146 5.32 25.662 13.847 6.482 9.612 6.737 22.968.622 32.817-4.453 7.354-12.047 12.744-20.552 14.292-2.824.472-5.733.587-8.588.43-9.748-.821-18.777-6.695-23.7-15.077-3.092-5.175-4.515-11.26-4.134-17.278.405-11.3 7.749-21.835 18.062-26.343a31 31 0 0 1 12.628-2.688" style="opacity:.11000001;fill:#4d4d4d;fill-opacity:1;stroke:none;display:inline;filter:url(#h)" transform="translate(-335.13 -492.386)"/></g></svg>