<svg xmlns="http://www.w3.org/2000/svg" xmlns:xlink="http://www.w3.org/1999/xlink" width="77.38" height="77.407"><defs><linearGradient xlink:href="#a" id="c" x1="143.5" x2="106.25" y1="22.902" y2="22.402" gradientTransform="translate(310.095 520.096)scale(.4843)" gradientUnits="userSpaceOnUse"/><linearGradient id="a"><stop offset="0" style="stop-color:red;stop-opacity:1"/><stop offset="1" style="stop-color:#f60;stop-opacity:1"/></linearGradient><linearGradient xlink:href="#b" id="d" x1="27.89" x2="50.487" y1="72.126" y2="5.21" gradientUnits="userSpaceOnUse"/><linearGradient id="b"><stop offset="0" style="stop-color:#4c3b2e;stop-opacity:1"/><stop offset=".143" style="stop-color:#382719;stop-opacity:1"/><stop offset=".25" style="stop-color:#3a261d;stop-opacity:1"/><stop offset=".376" style="stop-color:#5e3f28;stop-opacity:1"/><stop offset=".549" style="stop-color:#67472d;stop-opacity:1"/><stop offset=".737" style="stop-color:#4b3223;stop-opacity:1"/><stop offset="1" style="stop-color:#1f2123;stop-opacity:1"/></linearGradient><filter id="e" width="1" height="1" x="0" y="0" color-interpolation-filters="sRGB"><feTurbulence baseFrequency=".037" numOctaves="3" result="result0"/><feSpecularLighting result="result1" specularExponent="24.3" surfaceScale="2"><feDistantLight azimuth="225" elevation="45"/></feSpecularLighting><feDiffuseLighting diffuseConstant="1.21" in="result0" result="result2" surfaceScale="3"><feDistantLight azimuth="225" elevation="42"/></feDiffuseLighting><feBlend in2="SourceGraphic" mode="multiply" result="result91"/><feComposite in="result1" in2="result91" k2="1" k3="1" operator="arithmetic" result="result92"/><feComposite in2="SourceAlpha" operator="in" result="result2"/></filter></defs><g style="display:inline"><text xml:space="preserve" x="355.983" y="531.793" style="font-size:19.37196732px;font-style:normal;font-weight:400;line-height:125%;letter-spacing:0;word-spacing:0;fill:url(#c);fill-opacity:1;stroke:none;font-family:StoneSerITCStd Medium;-inkscape-font-specification:StoneSerITCStd Medium" transform="translate(-335.153 -492.386)"><tspan x="355.983" y="531.793" style="font-size:2.90579534px;fill:url(#c);fill-opacity:1">Created by Falzar FZ</tspan></text><path d="M72.952 36.456c0 20.103-16.365 36.4-36.552 36.4S-.152 56.558-.152 36.455 16.213.055 36.4.055s36.552 16.296 36.552 36.4z" style="fill:url(#d);fill-opacity:1;stroke:#131b40;stroke-width:0;stroke-miterlimit:4.0999999000000003;stroke-opacity:1;stroke-dasharray:none" transform="matrix(1.05182 0 0 1.05625 .397 .2)"/><path d="M72.952 36.456c0 20.103-16.365 36.4-36.552 36.4S-.152 56.558-.152 36.455 16.213.055 36.4.055s36.552 16.296 36.552 36.4z" style="opacity:.12;fill:#1a1a1a;fill-opacity:1;stroke:#131b40;stroke-width:0;stroke-miterlimit:4.0999999000000003;stroke-opacity:1;stroke-dasharray:none;display:inline;filter:url(#e)" transform="matrix(1.05182 0 0 1.05625 .397 .2)"/><path d="M374.698 497.434c-12.129.067-23.86 7.06-29.78 17.624-6.351 10.94-5.958 25.395.928 35.998 4.091 6.355 10.27 11.378 17.405 13.933 7.182 2.753 15.266 2.824 22.573.48 9.588-2.968 17.594-10.432 21.533-19.629 3.664-8.754 3.622-19.033-.285-27.702-4.92-11.447-16.456-19.61-28.86-20.583a35 35 0 0 0-3.514-.121m.555 4.106c10.183-.1 20.146 5.32 25.662 13.847 6.482 9.611 6.737 22.967.622 32.817-4.453 7.354-12.047 12.744-20.552 14.292-2.824.472-5.733.587-8.588.43-9.748-.821-18.777-6.695-23.7-15.077-3.092-5.175-4.515-11.26-4.134-17.278.405-11.3 7.749-21.835 18.062-26.343a31 31 0 0 1 12.628-2.688" style="fill:#070506;fill-opacity:1;stroke:none" transform="translate(-335.153 -492.386)"/><path d="M373.308 496.243c-12.129.067-23.861 7.06-29.78 17.625-6.351 10.939-5.958 25.394.928 35.997 4.091 6.355 10.27 11.378 17.405 13.933 7.182 2.753 15.266 2.825 22.573.48 9.588-2.968 17.594-10.432 21.533-19.628 3.664-8.755 3.622-19.034-.285-27.703-4.92-11.447-16.456-19.61-28.86-20.583a35 35 0 0 0-3.514-.12m.555 4.106c10.183-.1 20.146 5.32 25.662 13.847 6.482 9.612 6.737 22.968.622 32.817-4.453 7.354-12.047 12.744-20.552 14.292-2.824.472-5.733.587-8.588.43-9.748-.821-18.777-6.695-23.7-15.077-3.092-5.175-4.515-11.26-4.134-17.278.405-11.3 7.749-21.835 18.062-26.343a31 31 0 0 1 12.628-2.688" style="fill:#d2cfc9;fill-opacity:1;stroke:none;display:inline" transform="translate(-335.153 -492.386)"/></g></svg>