<svg xmlns="http://www.w3.org/2000/svg" id="Layer_1" data-name="Layer 1" viewBox="0 0 14.204 14.562"><defs><style>.cls-1{fill:#a8a5a8;stroke-width:0}</style></defs><path d="M13.196 7.178a6.2 6.2 0 0 1-.401 2.262 5.5 5.5 0 0 1-.858 1.558c-.488.612-1.058 1.143-1.759 1.535-.455.255-.92.46-1.413.61a5 5 0 0 1-.623.15c-.084.016-.177-.018-.266-.03.02-.084.017-.183.062-.25a.8.8 0 0 0 .144-.512c-.015-.299.041-.604-.125-.884a2.23 2.23 0 0 0-.839-.84A3.4 3.4 0 0 1 6.6 10.4c-.562-.471-.992-1.047-1.33-1.695-.217-.414-.295-.864-.324-1.318-.028-.432-.054-.875.013-1.298.057-.362.227-.712.383-1.05.15-.326.313-.656.529-.938a4 4 0 0 1 .757-.735c.4-.3.825-.564 1.316-.709.639-.188 1.294-.28 1.943-.152.566.111 1.106.318 1.587.681.544.41.845.981 1.146 1.55.431.817.534 1.72.576 2.442" class="cls-1"/><path d="M4.277 6.985c.002 1 .308 1.895.868 2.712.011.017.026.032.033.05l.094.249c-.094-.014-.194-.013-.28-.046-.188-.07-.365-.17-.553-.24-.86-.315-1.61-.8-2.2-1.5a3.5 3.5 0 0 1-.848-2.004c-.062-.762.137-1.475.528-2.107.548-.885 1.284-1.611 2.208-2.106.697-.373 1.437-.641 2.241-.723a7.3 7.3 0 0 1 2.077.092c.315.06.621.166.93.255.05.014.102.043.137.08.073.081.052.15-.055.177a.4.4 0 0 1-.14.007c-.98-.107-1.84.214-2.663.707-.888.53-1.48 1.304-1.89 2.228a6.3 6.3 0 0 0-.402 1.13c-.077.336-.06.692-.085 1.04" class="cls-1"/><path d="M6.362 13.324c-.565-.067-1.12-.182-1.642-.423-.297-.138-.602-.27-.876-.447a5.5 5.5 0 0 1-1.215-1.042 8 8 0 0 1-.673-.871A5.8 5.8 0 0 1 1.2 8.735q-.104-.46-.19-.923c-.01-.051.019-.11.03-.165.048.026.114.04.142.08.137.198.27.398.391.606.239.408.595.702.951.997.671.555 1.452.901 2.26 1.203q1.005.377 1.998.787c.43.178.7.513.724.98a1 1 0 0 1-.186.57c-.225.316-.55.486-.959.454Z" class="cls-1"/></svg>
