<svg xmlns="http://www.w3.org/2000/svg" data-name="Layer 1" viewBox="0 0 17.983 18.367"><defs><linearGradient id="b" x1="5.164" x2="12.781" y1="3.24" y2="15.068" gradientUnits="userSpaceOnUse"><stop offset="0" stop-color="#d67f6e"/><stop offset=".25" stop-color="#fded6d"/><stop offset=".457" stop-color="#7cb97f"/><stop offset=".694" stop-color="#87b3e0"/><stop offset=".887" stop-color="#7072b3"/><stop offset="1" stop-color="#c671ae"/></linearGradient><clipPath id="a"><path d="M9.017 4.995 7.97 6.135c-.157-.383-.32-.709-.425-1.053-.173-.566-.308-1.143-.458-1.716-.024-.09.007-.148.092-.196.569-.326 1.137-.653 1.699-.989.098-.058.157-.022.23.021 1.815 1.06 3.623 2.13 5.448 3.17.336.19.466.388.449.778-.036.822-.011 1.646-.011 2.47v.2c-2.45-.59-4.426-1.882-5.977-3.827zm-.02 8.405c.269-.298.525-.594.795-.879a10 10 0 0 1 1.769-1.47c.04-.028.117-.048.152-.028a10.7 10.7 0 0 0 3.28 1.204c0 .161.01.323-.005.482-.005.052-.068.114-.12.144q-1.877 1.086-3.758 2.17-1 .573-1.997 1.153c-.091.053-.16.053-.25 0-.405-.242-.818-.472-1.223-.716a.7.7 0 0 1-.205-.21 13.5 13.5 0 0 1-1.424-2.854c-.218-.613-.385-1.244-.574-1.868-.004-.013.004-.03.012-.075 1.415.72 2.578 1.72 3.548 2.947m-2.625 1.326-2.445-1.429c-.283-.165-.568-.328-.847-.5-.048-.03-.097-.103-.097-.157-.006-1.006-.004-2.012-.004-3.018 0-.02.005-.042.01-.09.426.132.839.281 1.262.386.362.09.476.305.554.657a15.4 15.4 0 0 0 1.528 4.054c.009.017.015.037.039.096zm.095-11.138c.08.332.15.65.237.962q.268.968.72 1.866c.049.098.045.152-.044.226a10.7 10.7 0 0 1-2.304 1.461c-.021-.286-.052-.549-.06-.812-.025-.974.072-1.94.229-2.9.007-.044.028-.103.062-.123.38-.228.766-.45 1.159-.68M4.524 4.726c-.023.24-.051.46-.063.682-.03.573-.067 1.147-.074 1.72-.005.386.039.772.055 1.158.002.037-.031.1-.062.11-.453.154-.91.303-1.401.465v-.218c0-.957.002-1.914-.002-2.872 0-.108.026-.173.126-.229.426-.239.846-.489 1.269-.735.045-.026.092-.05.152-.083zm10.463 6.82a9.7 9.7 0 0 1-2.675-.945 10.2 10.2 0 0 1 2.675-1.033z" style="stroke-width:0;fill:none"/></clipPath></defs><g style="clip-path:url(#a)"><path d="M1.957 5.122v8.123l7.035 4.061 7.034-4.061V5.122L8.992 1.061z" style="fill:url(#b);stroke-width:0"/></g></svg>
