<svg xmlns="http://www.w3.org/2000/svg" xmlns:xlink="http://www.w3.org/1999/xlink" width="76.852" height="77.152"><defs><linearGradient id="i"><stop offset="0" style="stop-color:#af9b3c;stop-opacity:1"/><stop offset="1" style="stop-color:#e5d892;stop-opacity:1"/></linearGradient><linearGradient id="f"><stop offset="0" style="stop-color:#b8ac54;stop-opacity:1"/><stop offset="1" style="stop-color:#684f12;stop-opacity:1"/></linearGradient><linearGradient id="e"><stop offset="0" style="stop-color:#1f291e;stop-opacity:.12612613"/><stop offset="1" style="stop-color:#4c5433;stop-opacity:1"/></linearGradient><linearGradient id="c"><stop offset="0" style="stop-color:red;stop-opacity:1"/><stop offset="1" style="stop-color:#f60;stop-opacity:1"/></linearGradient><linearGradient xlink:href="#c" id="j" x1="143.5" x2="106.25" y1="22.902" y2="22.402" gradientTransform="translate(246.484 539.035)scale(.68518)" gradientUnits="userSpaceOnUse"/><linearGradient id="d"><stop offset="0" style="stop-color:#75824c;stop-opacity:1"/><stop offset=".422" style="stop-color:#38452d;stop-opacity:1"/><stop offset=".56" style="stop-color:#252e21;stop-opacity:1"/><stop offset=".726" style="stop-color:#131c18;stop-opacity:1"/><stop offset="1" style="stop-color:#050607;stop-opacity:1"/></linearGradient><linearGradient xlink:href="#e" id="l" x1="425.635" x2="393.456" y1="588.299" y2="547.574" gradientUnits="userSpaceOnUse"/><linearGradient xlink:href="#f" id="n" x1="486.982" x2="472.661" y1="576.549" y2="560.511" gradientUnits="userSpaceOnUse"/><linearGradient xlink:href="#i" id="o" x1="464.854" x2="489.233" y1="563.134" y2="567.849" gradientUnits="userSpaceOnUse"/><radialGradient xlink:href="#d" id="k" cx="323.009" cy="633.445" r="39.672" fx="323.009" fy="633.445" gradientTransform="matrix(-1.40171 1.36597 -1.38923 -1.48083 1627.66 1046.689)" gradientUnits="userSpaceOnUse"/><filter id="m" width="1" height="1" x="0" y="0" color-interpolation-filters="sRGB"><feTurbulence baseFrequency=".037" numOctaves="3" result="result0"/><feSpecularLighting result="result1" specularExponent="24.3" surfaceScale="2"><feDistantLight azimuth="225" elevation="45"/></feSpecularLighting><feDiffuseLighting diffuseConstant="1.21" in="result0" result="result2" surfaceScale="3"><feDistantLight azimuth="225" elevation="42"/></feDiffuseLighting><feBlend in2="SourceGraphic" mode="multiply" result="result91"/><feComposite in="result1" in2="result91" k2="1" k3="1" operator="arithmetic" result="result92"/><feComposite in2="SourceAlpha" operator="in" result="result2"/></filter></defs><text xml:space="preserve" x="311.405" y="555.583" style="font-size:27.40720367px;font-style:normal;font-weight:400;line-height:125%;letter-spacing:0;word-spacing:0;fill:url(#j);fill-opacity:1;stroke:none;font-family:StoneSerITCStd Medium;-inkscape-font-specification:StoneSerITCStd Medium" transform="translate(-278.803 -506.754)scale(.95851)"><tspan x="311.405" y="555.583" style="font-size:4.11108065px;fill:url(#j);fill-opacity:1">Created by Falzar FZ</tspan></text><g style="opacity:1"><path d="M325.125 533.768c-12.046.128-23.831 6.478-30.107 16.838-9.984 15.476-9.221 37.58 3.108 51.559 7.91 8.942 20.14 13.526 31.995 12.685 12.969-.255 25.58-7.742 31.67-19.258 5.398-9.438 6.922-20.84 4.725-31.458-2.298-13.991-13.543-26.225-27.386-29.441-4.606-.848-9.333-.962-14.005-.925" style="fill:url(#k);fill-opacity:1;stroke:none" transform="matrix(.96767 0 0 .94944 -278.798 -506.73)"/></g><g style="fill:#fffffe;fill-opacity:1"><path d="M376.317 582.717c15.023 47.511 58.146 21.819 71.077-35.502-16.841-22.801-49.382-18.914-62.35-3.55-7.588 7.47-12.742 24.585-8.727 39.052" style="opacity:.2;fill:url(#l);fill-opacity:1;stroke:none;filter:url(#m)" transform="matrix(.96767 0 0 .94944 -362.599 -503.968)"/><g style="fill:#fffffe;fill-opacity:1"><path d="M295.89 572.39c1.957-12.564 15.2-18.763 1.632-31.763-7.787 6.652-11.11 15.677-19.828 19.83-1.176 5.51-2.087 13.413 6.155 16.375 2.934 1.055 8.694.5 12.041-4.442" style="opacity:.4;fill:#010101;fill-opacity:1;stroke:none" transform="matrix(.96767 0 0 .94944 -260.363 -505.03)"/></g><g style="fill:url(#n);fill-opacity:1" transform="matrix(.96767 0 0 .94944 -447.283 -512.678)"><g style="opacity:.4"><path d="M471.765 568.038c-1.863 1.548-1.367 3.235.214 1.895 5.019-4.252 2.036-3.764-.214-1.895m-1.625 22.935c-1.045 2.112 1.855 5.07 3.09 3.297.983-1.412-2.492-4.504-3.09-3.297m11.928-23.448c-13.226 35.809-6.613 17.904 0 0m-7.102 11.353c-2.31 1.413-.565 6.571.963 4.189 1.484-2.312 1.24-5.537-.963-4.189m-3.076-4.342c-1.659 2.242-1.166 7.887 1.09 1.258 3.752-2.94 2.463-3.98-1.09-1.258m7.178-11.216c-4.82 12.887 11.96 11.837 12.84 1.895.534-6.026-10.54-8.046-12.84-1.895" style="opacity:1;fill:url(#o);fill-opacity:1;stroke:none"/></g></g><g style="fill:#fffffe;fill-opacity:1"><path d="m130.073 33.476-6.206 1.039s.257-4.752.235-6.636-4.122-2.67-4.148-.526.006 8.34.006 8.34c-1.076.568-3.336.452-4.701 1.197-1.706.93-2.218 3.037-.62 4.191 1 .666 5.355-1.579 5.355-1.579s-.523 12.057-.234 18.17c.116.815 1.225 1.481 4.351 1.883 8.076.521 18.363 1.509 24.722 2.206 1.034-.756 5.34-6.006 2.492-7.536-8.369 2.092-27.554.838-27.554.838l.137-16.143 5.88-1.558s-1.11 8.88 1.5 12.19c3.27.041 2.132-4.963 2.43-7.01.041-3.423.16-6.99.16-6.99l8.042-.644s-2.161 6.281-2.726 9.523c.616 1.351 1.683 1.055 2.765.37.698-.815 6.164-10.357 4.849-13.553-.76-.982-13.32 1.421-13.32 1.421s.093-11.69.098-12.716-3.342-1.465-3.371.838c-.03 2.302-.142 12.685-.142 12.685" style="fill:#fffffe;fill-opacity:1;stroke:none" transform="translate(-83.702 2.673)"/><path d="M102.857 21.784c-.024 2.743-.045 10.142-.045 10.142s-3.93.1-6.59.1c-1.87-.014-3.138 4.03.186 3.585 1.93-1.077 6.274-.488 6.274-.488l.117 12.54s-7.504.892-8.802 3.875c.022 3.848 3.995 1.804 5.57 1.188 2.144-.839 4.717-1.746 6.717-2.453 2.607-.806 5.695-1.39 7.575-2.688 1.933-3.623-7.33-.683-7.33-.683l.032-12.139s3.239.027 6.393-.03c1.562-.81 1.227-2.497.36-2.687a612 612 0 0 0-6.775-.045s.022-7.323.018-10.042c-.003-2.719-3.676-2.918-3.7-.175" style="fill:#fffffe;fill-opacity:1;stroke:none" transform="translate(-83.702 2.673)"/><path d="M389.725 541.135c-.568.058-1.207-.098-1.737.13-.195.374.39.443.628.455.314.06.854.135.73.591.065 2.832.1 5.686-.027 8.507-.349.384-.999.14-1.348.49-.143.413.482.34.718.357 2.603.023 5.212.042 7.812-.019.245-.821.325-1.734.526-2.584-.031-.373-.59-.188-.646.097-.34.731-.763 1.626-1.669 1.746-.959.129-1.992.177-2.935-.052-.41-.149-.602-.57-.503-.99v-3.353c.766.059 1.614-.129 2.332.199.432.21.469.713.673 1.08.212.164.665.1.518-.267-.027-.978.054-1.982-.04-2.945-.346-.154-.623.142-.64.463-.168.792-1.11.865-1.777.866-.33-.1-1.125.253-1.066-.237v-3.95c.977.07 1.998-.062 2.95.157.69.278.815 1.071 1.061 1.672.199.194.708.14.553-.244-.028-.713.055-1.452-.04-2.149-2.016-.05-4.05-.01-6.073-.02M402.149 541.028c-1.35 3.094-2.87 6.234-4.29 9.287-.268.47-.506.718-.995.888-.278.202 0 .55.29.465.936-.009 1.896.093 2.82-.054.305-.232-.12-.555-.37-.577-.422-.134-.496-.617-.288-.958.206-.615.456-1.213.69-1.818h4.21c.285.813.7 1.612.853 2.45-.164.423-.724.31-.998.574-.178.363.33.416.57.388 1.132-.017 2.283.087 3.403-.057.32-.188-.055-.55-.317-.532-.88-.356-.962-1.447-1.351-2.19-1.043-2.596-2.043-5.21-3.061-7.816-.32-.105-1.083-.152-1.408-.05zm.177 1.98c.526 1.48 1.122 3.011 1.58 4.472-1.181.028-2.363.031-3.544-.005a261 261 0 0 1 1.937-4.542zM410.272 541.138c-.423.067-.978-.117-1.329.154-.121.425.524.387.789.448.352.03.743.22.641.621.083 2.795.113 5.597-.023 8.39-.249.541-1.14.105-1.417.607-.068.404.556.283.807.318 1.345-.023 2.707.083 4.042-.06.306-.14.037-.54-.248-.492-.432-.056-1.094-.088-1.156-.62-.097-1.129-.016-2.267-.016-3.4l1.533-.04c1.037 1.417 1.92 2.963 3.092 4.274.574.518 1.457.286 2.172.335.213.026.741-.049.448-.325-1.701-1.21-2.839-2.97-4.116-4.537.865-.433 1.803-.965 2.182-1.885.474-1.06.236-2.48-.828-3.14-1.386-.86-3.14-.57-4.705-.65q-.935-.002-1.868.002zm3.075.641c.905-.079 1.742.142 2.14 1.01.376.915.288 2.06-.24 2.905-.626.885-1.625.737-2.596.769-.166.006-.387.014-.302-.217-.028-1.49.007-2.981.016-4.472zM424.583 541.153c-1.666.033-3.359-.04-5.008.06-.142.741-.422 1.493-.44 2.245.25.305.692-.056.789-.33.376-.744 1.118-1.394 2.049-1.351.547-.028 1.094-.04 1.641-.06-.031 3.003.071 6.013-.078 9.011-.159.428-.794.303-1.168.413-.309.033-.362.506-.013.503 1.513.058 3.04.076 4.55-.01.374-.082.124-.552-.186-.498-.345-.098-.752-.021-.89-.413-.145-2.398-.024-4.808-.048-7.21l.008-1.793c1.093.101 2.293-.18 3.048.773.333.324.438.95.955 1.072.604.04.061-.742.107-1.06-.142-.407-.077-.932-.332-1.28-1.638-.157-3.33-.043-4.984-.072M431.226 541.135c-.31.069-.775-.123-.993.182-.07.493.584.393.862.47.47-.03.332.667.396.975.02 2.567.061 5.137-.026 7.703-.002.274-.08.632-.415.57-.264.088-.888-.002-.817.467.227.3.688.112 1.002.179 1.086-.037 2.192.088 3.267-.072.255-.16.004-.524-.24-.473-.312-.13-.648.045-.687-.472-.13-1.425-.054-2.878-.1-4.313h4.712c-.05 1.456.043 2.934-.112 4.377-.103.47-.258.262-.568.426-.325.031-.261.565.064.5 1.288.032 2.588.08 3.871-.025.307-.094.095-.544-.168-.5-.342-.057-.996-.053-.93-.607-.061-2.736-.054-5.476-.006-8.213-.066-.49.464-.57.794-.582.248.043.63-.236.388-.505-.768-.186-1.589-.042-2.375-.09-.591.05-1.23-.095-1.797.1-.22.283.16.53.404.498.303.04.37.025.347.49.105 1.118.05 2.247.086 3.37h-4.71c.062-1.19-.07-2.422.134-3.587.2-.372.447-.184.768-.338.299-.018.297-.531-.018-.497-1.042-.068-2.09-.023-3.133-.033z" style="fill:#fffffe;fill-opacity:1;stroke:none" transform="matrix(.96767 0 0 .94944 -362.505 -504.082)"/></g></g></svg>
