<svg xmlns="http://www.w3.org/2000/svg" xmlns:xlink="http://www.w3.org/1999/xlink" width="77.178" height="77.482"><defs><linearGradient xlink:href="#a" id="l" x1="143.5" x2="106.25" y1="22.902" y2="22.402" gradientTransform="translate(273.968 558.435)scale(.42414)" gradientUnits="userSpaceOnUse"/><linearGradient id="a"><stop offset="0" style="stop-color:red;stop-opacity:1"/><stop offset="1" style="stop-color:#f60;stop-opacity:1"/></linearGradient><linearGradient id="b"><stop offset="0" style="stop-color:#620e4f;stop-opacity:1"/><stop offset=".482" style="stop-color:#68110c;stop-opacity:1"/><stop offset=".57" style="stop-color:#812e1c;stop-opacity:1"/><stop offset=".652" style="stop-color:#9c3727;stop-opacity:1"/><stop offset=".791" style="stop-color:#510047;stop-opacity:1"/><stop offset=".881" style="stop-color:#130542;stop-opacity:1"/><stop offset=".933" style="stop-color:#3a3481;stop-opacity:1"/><stop offset="1" style="stop-color:#48449d;stop-opacity:1"/></linearGradient><linearGradient id="c"><stop offset="0" style="stop-color:#63aeda;stop-opacity:.71428573"/><stop offset="1" style="stop-color:#60addb;stop-opacity:.91071427"/><stop offset="1" style="stop-color:#74b490;stop-opacity:1"/><stop offset="1" style="stop-color:#71b184;stop-opacity:.54464287"/></linearGradient><linearGradient id="d"><stop offset="0" style="stop-color:#5690d0;stop-opacity:1"/><stop offset=".722" style="stop-color:#155c8c;stop-opacity:1"/><stop offset="1" style="stop-color:#050505;stop-opacity:1"/></linearGradient><linearGradient xlink:href="#e" id="s" x1="326.005" x2="317.996" y1="576.835" y2="545.238" gradientUnits="userSpaceOnUse"/><linearGradient id="e"><stop offset="0" style="stop-color:#51519f;stop-opacity:1"/><stop offset="1" style="stop-color:#341b36;stop-opacity:1"/></linearGradient><linearGradient xlink:href="#f" id="t" x1="159.767" x2="169.326" y1="604.743" y2="560.375" gradientUnits="userSpaceOnUse"/><linearGradient id="f"><stop offset="0" style="stop-color:#110341;stop-opacity:1"/><stop offset=".796" style="stop-color:#9d212d;stop-opacity:1"/><stop offset="1" style="stop-color:#b0352a;stop-opacity:1"/></linearGradient><linearGradient xlink:href="#g" id="u" x1="198.468" x2="199.368" y1="629.299" y2="625.017" gradientUnits="userSpaceOnUse"/><linearGradient id="g"><stop offset="0" style="stop-color:#790e20;stop-opacity:.94901961"/><stop offset="1" style="stop-color:#331551;stop-opacity:1"/></linearGradient><linearGradient xlink:href="#h" id="v" x1="197.189" x2="197.554" y1="623.341" y2="559.85" gradientUnits="userSpaceOnUse"/><linearGradient id="h"><stop offset="0" style="stop-color:#351650;stop-opacity:1"/><stop offset=".557" style="stop-color:#312d6a;stop-opacity:1"/><stop offset="1" style="stop-color:#38074a;stop-opacity:1"/></linearGradient><linearGradient xlink:href="#i" id="w" x1="226.966" x2="216.501" y1="577.184" y2="554.541" gradientUnits="userSpaceOnUse"/><linearGradient id="i"><stop offset="0" style="stop-color:#6d4186;stop-opacity:.74117649"/><stop offset="1" style="stop-color:#5b44a1;stop-opacity:.78039217"/></linearGradient><linearGradient xlink:href="#j" id="x" x1="183.019" x2="181.598" y1="554.187" y2="549.053" gradientUnits="userSpaceOnUse"/><linearGradient id="j"><stop offset="0" style="stop-color:#420e4f;stop-opacity:1"/><stop offset=".063" style="stop-color:#421153;stop-opacity:.99607843"/><stop offset=".125" style="stop-color:#431458;stop-opacity:.99607843"/><stop offset=".25" style="stop-color:#441b61;stop-opacity:.99607843"/><stop offset=".5" style="stop-color:#462974;stop-opacity:.99215686"/><stop offset="1" style="stop-color:#4a459a;stop-opacity:.98431373"/></linearGradient><linearGradient id="k"><stop offset="0" style="stop-color:#000005;stop-opacity:1"/><stop offset="1" style="stop-color:#000200;stop-opacity:0"/></linearGradient><radialGradient xlink:href="#b" id="m" cx="284.928" cy="523.338" r="39.672" fx="284.928" fy="523.338" gradientTransform="matrix(.44504 3.41528 -2.58549 .34991 1540.231 -680.004)" gradientUnits="userSpaceOnUse"/><radialGradient xlink:href="#c" id="q" cx="210.036" cy="620.81" r="27.364" fx="210.036" fy="620.81" gradientTransform="matrix(1.49593 .91937 -.77342 1.30721 381.009 -405.869)" gradientUnits="userSpaceOnUse"/><radialGradient xlink:href="#d" id="r" cx="496.089" cy="552.537" r="38.144" fx="496.089" fy="552.537" gradientTransform="matrix(.79835 .89984 -.7322 .6748 505.256 -270.746)" gradientUnits="userSpaceOnUse"/><radialGradient xlink:href="#k" id="y" cx="196.193" cy="617.078" r="3.18" fx="196.193" fy="617.078" gradientTransform="matrix(2.98443 1.39023 -2.54792 5.68166 1182.934 -3161.788)" gradientUnits="userSpaceOnUse"/><radialGradient xlink:href="#b" id="o" cx="284.928" cy="523.338" r="39.672" fx="284.928" fy="523.338" gradientTransform="matrix(.44504 3.41528 -2.58549 .34991 1540.231 -680.004)" gradientUnits="userSpaceOnUse"/><radialGradient xlink:href="#b" id="n" cx="284.928" cy="523.338" r="39.672" fx="284.928" fy="523.338" gradientTransform="matrix(.44504 3.41528 -2.58549 .34991 1540.231 -680.004)" gradientUnits="userSpaceOnUse"/><radialGradient xlink:href="#b" id="p" cx="284.928" cy="523.338" r="39.672" fx="284.928" fy="523.338" gradientTransform="matrix(.44504 3.41528 -2.58549 .34991 1540.231 -680.004)" gradientUnits="userSpaceOnUse"/></defs><text xml:space="preserve" x="314.155" y="568.679" style="font-size:16.96562195px;font-style:normal;font-weight:400;line-height:125%;letter-spacing:0;word-spacing:0;fill:url(#l);fill-opacity:1;stroke:none;font-family:StoneSerITCStd Medium;-inkscape-font-specification:StoneSerITCStd Medium" transform="translate(-288.81 -535.354)"><tspan x="314.155" y="568.679" style="font-size:2.54484344px;fill:url(#l);fill-opacity:1">Created by Falzar FZ</tspan></text><g style="fill:url(#m);fill-opacity:1" transform="matrix(.96767 0 0 .94944 -278.625 -506.577)"><g style="fill:url(#n);fill-opacity:1"><path d="M325.125 533.768c-12.046.128-23.831 6.478-30.107 16.838-9.984 15.476-9.221 37.58 3.108 51.559 7.91 8.942 20.14 13.526 31.995 12.685 12.969-.255 25.58-7.742 31.67-19.258 5.398-9.438 6.922-20.84 4.725-31.458-2.298-13.991-13.543-26.225-27.386-29.441-4.606-.848-9.333-.962-14.005-.925" style="fill:url(#o);fill-opacity:1;stroke:none"/></g></g><g style="fill:url(#r)" transform="matrix(.96767 0 0 .94944 -240.789 -498.938)"><path d="M315.457 541.489c2.763 4.353 3.55 9.059 5.473 15.998-2.003-6.546-3.937-8.046-4.968-9.528 4.51 17.363 8.838 24.326 8.198 36.311 3.216-5.844 4.6-12.592 3.013-20.833-1.975-10.249-7.842-18.919-11.716-21.948" style="fill:url(#s);fill-opacity:1;stroke:none"/></g><path d="M165.078 556.267c-3.937 3.95-24.542 17.237-3.453 54.955-3.57-25.361 3.764-31.2 19.824-48.378 14.909-15.946-11.297-11.668-16.37-6.577" style="fill:url(#t);fill-opacity:1;stroke:none" transform="matrix(.96767 0 0 .94944 -144.676 -521.31)"/><path d="M207.988 626.055c-12.52-1.11-15.44 1.799-32.328-7.485 7.734 14.88 20.028 13.543 32.328 7.485" style="fill:url(#u);fill-opacity:1;stroke:none" transform="matrix(.96767 0 0 .94944 -144.676 -521.31)"/><path d="M204.255 557.098c-11.62 25.68-58.766 61.152-10.313 68.423-10.693-27.751 34.366-36.448 10.313-68.423" style="fill:url(#v);fill-opacity:1;stroke:none" transform="matrix(.96767 0 0 .94944 -144.676 -521.31)"/><path d="M218.037 560.062c3.029 5.4 7.072 11.8 10.385 21.498-1.5-8.656-4.118-15.81-10.385-21.498" style="fill:url(#w);fill-opacity:1;stroke:none" transform="matrix(.96767 0 0 .94944 -144.676 -521.31)"/><path d="M166.383 555.258c8.025-4.149 13.948-3.659 19.036-.8 2.7.9 5.86.982 7.255.862.953-7.765-12.568-8.27-26.291-.062" style="fill:url(#x);fill-opacity:1;stroke:none" transform="matrix(.96767 0 0 .94944 -144.676 -521.31)"/><path d="M195.447 612.435c-1.217-.057-1.742 1.6-1.776 2.82-.052 1.835-.346 3.924.092 5.812.27 1.156 2.016 1.22 3.008.586 1.717-1.096 3.355-2.91 3.086-4.96-.382-2.9-2.072-4.149-4.41-4.258" style="fill:url(#y);fill-opacity:1;stroke:none" transform="matrix(.96767 0 0 .94944 -144.676 -521.31)"/><g style="fill:#f9fdf7;fill-opacity:1"><path d="M394.25 595.79s-2.597 2.076-1.807 5.707c.481 2.68 6.688-2.291 21.054-3.264 6.55-2.526-.082-4.918-3.179-3.795-8.4 1.233-12.187 1.856-12.187 1.856l.155-6.673 17.69-.248c4.168 6.176 7.47 10.38 23.498 13.007 3.072.706 6.513-5.63 3.915-6.65-17.691.156-22.648-6.416-22.648-6.416 4.963-.052 12.229 1.376 13.572-.12 1.107-.599 1.292-2.958.589-3.329-3.817-.133-17.184.327-17.184.327s-1.892-2.743-2.495-5.635c2.711-.055 15.741-.156 15.741-.156.687-3.314.56-6.584.78-10.148l-37.448-.005c.406 9.814-.047 25.543-.047 25.543m32.99-22.486.035 4.491-27.941-.077.067-4.317zm-16.129 7.187c.724 2.561 1.086 3.608 2.164 5.782-4.493.19-13.928.034-13.928.034l-.03-5.853s8.393-.023 11.794.037M390.342 555.006s-.714 1.612-.009 3.15l-.02 6.78c-.49 1.243-.007 2.26-.007 2.26s.82.683 2.156.002l43.84.052.056-9.193c1.11-1.785.018-3.096.018-3.096l-43.236.043c-1.673-.885-2.798.003-2.798.003zm14.992 3.13-.088 6.003-10.925.004.038-6.13zm12.833-.01.123 6.024-9.925-.05-.013-5.949zm15.14-.036-.065 6.03-10.955-.004.003-6.03z" style="fill:#f9fdf7;fill-opacity:1;stroke:none" transform="matrix(.96767 0 0 .94944 -361.037 -507.05)"/></g><path d="M305.644 540.176c-.184.73-.41 1.48-.514 2.22.224.203.692.12.795-.19.402-.751 1.129-1.44 2.048-1.413.653-.028 1.307-.03 1.96-.046-.03 2.833.019 5.668-.07 8.499.039.378-.404.496-.706.51-.25.091-.722-.042-.828.275-.12.37.235.401.52.355 1.54-.016 3.095.032 4.626-.024.15-.189.044-.564-.258-.534-.381-.108-.936.01-1.186-.363-.135-1.01-.053-2.06-.087-3.085l-.022-5.633c.862.06 1.766-.059 2.602.147.735.222 1.132.9 1.543 1.476.156.162.54.207.654-.007-.167-.72-.306-1.48-.52-2.187-.768-.084-1.594-.012-2.384-.036h-8.091l-.054.024zM317.377 540.169c-.161.378.09.632.49.538.343.043.91-.002 1.032.406.108 2.602.08 5.209.03 7.812-.01.266.05.657-.292.738-.387.167-.879.048-1.241.272-.11.188-.066.555.241.451 1.64-.016 3.293.032 4.923-.024.149-.191.05-.587-.26-.545-.407-.076-.942-.008-1.22-.355-.184-.58-.052-1.216-.09-1.815l.019-1.73 1.638.03c1.024 1.327 1.978 2.713 3.064 3.988.582.58 1.499.389 2.245.45.218-.029.727.11.707-.238-.181-.34-.639-.421-.894-.709-1.297-1.15-2.407-2.502-3.507-3.823 1.051-.375 2.382-1.048 2.709-2.156.296-.937-.014-2.047-.867-2.607-.572-.388-1.528-.565-2.202-.678q-3.222-.023-6.443-.041l-.054.024zm4.491.59c.897.004 1.978-.011 2.555.784.426.592.315 1.38.282 2.065-.148.924-1.013 1.681-1.987 1.643-.568.04-1.138.045-1.707.065v-4.56zM334.867 539.979c-.35-.046-.898.017-.963.442-1.281 2.775-2.51 5.58-3.824 8.335-.255.597-.596 1.036-1.218 1.092-.198.138-.166.66.155.538 1.046-.016 2.105.032 3.143-.024.136-.194.046-.588-.24-.563-.33-.016-.763-.275-.63-.684.181-.712.536-1.379.806-2.065h4.321c.273.778.709 1.518.839 2.337-.032.398-.53.371-.801.439-.34-.017-.36.693.017.56 1.304-.016 2.62.032 3.916-.024.135-.191.045-.577-.237-.56-.47-.077-.825-.456-.986-.913-.83-1.837-1.553-3.728-2.343-5.585-.47-1.103-.883-2.248-1.401-3.318-.162-.056-.378.005-.554-.007zm-.438 1.928a115 115 0 0 1 1.691 4.404c-1.224.043-2.45.052-3.674.016.627-1.488 1.319-2.954 1.983-4.42M341.738 540.176c-.168.377.099.62.501.534.35.047.873.018 1.056.367.115 2.634.082 5.274.031 7.91.007.252.026.608-.3.678-.394.169-.9.049-1.267.273-.118.185-.067.553.245.448 1.682-.016 3.378.032 5.05-.024.137-.174.068-.62-.265-.542-.385-.066-.841-.029-1.168-.253-.231-.264-.068-.664-.132-.98-.039-2.61-.02-5.22-.026-7.83 1.174.023 2.247-.098 3.244.601.934.76.884 2.185.274 3.098-.642.903-1.614 1.056-2.662 1.146-.286 0-.299.453-.002.43 1.564-.013 3.323-.13 4.528-1.188.569-.532.963-1.272.862-2.048.079-.674-.256-1.333-.827-1.728-1.356-.941-3.125-.906-4.728-.919-1.46 0-2.935-.039-4.386.015z" style="fill:#f9fdf7;fill-opacity:1;stroke:none" transform="matrix(.95584 0 0 .94944 -274.746 -506.583)"/></svg>
