<svg xmlns="http://www.w3.org/2000/svg" xmlns:xlink="http://www.w3.org/1999/xlink" width="76.852" height="77.152"><defs><linearGradient id="m"><stop offset="0" style="stop-color:red;stop-opacity:1"/><stop offset="1" style="stop-color:#f60;stop-opacity:1"/></linearGradient><linearGradient xlink:href="#m" id="v" x1="143.5" x2="106.25" y1="22.902" y2="22.402" gradientTransform="translate(249.276 537.995)scale(.66769)" gradientUnits="userSpaceOnUse"/><linearGradient xlink:href="#n" id="w" x1="300.604" x2="354.514" y1="544.727" y2="598.804" gradientUnits="userSpaceOnUse"/><linearGradient id="n"><stop offset="0" style="stop-color:#26c0e4;stop-opacity:1"/><stop offset="1" style="stop-color:#009be6;stop-opacity:1"/></linearGradient><linearGradient id="o"><stop offset="0" style="stop-color:#005e96;stop-opacity:1"/><stop offset=".553" style="stop-color:#006bab;stop-opacity:1"/><stop offset="1" style="stop-color:#16afe5;stop-opacity:1"/></linearGradient><linearGradient id="p"><stop offset="0" style="stop-color:#0069a4;stop-opacity:1"/><stop offset=".627" style="stop-color:#006bab;stop-opacity:1"/><stop offset="1" style="stop-color:#16b0e5;stop-opacity:1"/></linearGradient><linearGradient id="q"><stop offset="0" style="stop-color:#0068af;stop-opacity:1"/><stop offset=".654" style="stop-color:#006bab;stop-opacity:1"/><stop offset="1" style="stop-color:#16b0e5;stop-opacity:1"/></linearGradient><linearGradient id="r"><stop offset="0" style="stop-color:#005e96;stop-opacity:1"/><stop offset=".301" style="stop-color:#006bab;stop-opacity:1"/><stop offset="1" style="stop-color:#16afe5;stop-opacity:1"/></linearGradient><linearGradient id="s"><stop offset="0" style="stop-color:#53e1ff;stop-opacity:1"/><stop offset="1" style="stop-color:#53e1ff;stop-opacity:0"/></linearGradient><linearGradient id="t"><stop offset="0" style="stop-color:#53e1ff;stop-opacity:1"/><stop offset="1" style="stop-color:#53e1ff;stop-opacity:0"/></linearGradient><linearGradient id="u"><stop offset="0" style="stop-color:#08a3e6;stop-opacity:1"/><stop offset=".759" style="stop-color:#08a3e6;stop-opacity:1"/><stop offset="1" style="stop-color:#016ead;stop-opacity:1"/></linearGradient><radialGradient xlink:href="#o" id="x" cx="349.596" cy="562.995" r="5.997" fx="349.596" fy="562.995" gradientTransform="matrix(.6225 -.66686 1.08073 1.04793 -476.532 206.444)" gradientUnits="userSpaceOnUse"/><radialGradient xlink:href="#p" id="y" cx="316.907" cy="550.94" r="3.235" fx="316.907" fy="550.94" gradientTransform="matrix(.56848 .55122 -.86019 .92149 610.663 -131.43)" gradientUnits="userSpaceOnUse"/><radialGradient xlink:href="#q" id="z" cx="304.592" cy="576.444" r="7.866" fx="304.592" fy="576.444" gradientTransform="matrix(.767 .33797 -.65058 1.53362 445.57 -410.23)" gradientUnits="userSpaceOnUse"/><radialGradient xlink:href="#r" id="A" cx="348.927" cy="597.215" r="27.163" fx="348.927" fy="597.215" gradientTransform="matrix(.39097 .43757 -2.49162 2.31256 1692.143 -933.553)" gradientUnits="userSpaceOnUse"/><radialGradient xlink:href="#t" id="C" cx="362.106" cy="577.111" r="1.883" fx="362.106" fy="577.111" gradientTransform="matrix(8.14815 -5.93185 2.36385 3.37288 -3952.593 778.819)" gradientUnits="userSpaceOnUse"/><radialGradient xlink:href="#t" id="D" cx="288.941" cy="577.951" r="1.284" fx="288.941" fy="577.951" gradientTransform="matrix(1.17195 .0482 -.12454 3.14536 22.305 -1253.771)" gradientUnits="userSpaceOnUse"/><radialGradient xlink:href="#u" id="E" cx="343.453" cy="578.401" r="6.553" fx="343.453" fy="578.401" gradientTransform="matrix(1.00982 1.03143 -1.79785 1.82841 1041.041 -837.253)" gradientUnits="userSpaceOnUse"/><radialGradient xlink:href="#s" id="B" cx="343.472" cy="614.761" r="18.211" fx="343.472" fy="614.761" gradientTransform="matrix(3.5311 -1.72787 .20306 .43105 -994.196 937.708)" gradientUnits="userSpaceOnUse"/></defs><text xml:space="preserve" x="312.54" y="554.121" style="font-size:26.70750427px;font-style:normal;font-weight:400;line-height:125%;letter-spacing:0;word-spacing:0;fill:url(#v);fill-opacity:1;stroke:none;font-family:StoneSerITCStd Medium;-inkscape-font-specification:StoneSerITCStd Medium" transform="translate(-278.803 -506.754)scale(.95851)"><tspan x="312.54" y="554.121" style="font-size:4.00612593px;fill:url(#v);fill-opacity:1">Created by Falzar FZ</tspan></text><path d="M325.125 533.768c-12.046.128-23.831 6.478-30.107 16.838-9.984 15.476-9.221 37.58 3.108 51.559 7.91 8.942 20.14 13.526 31.995 12.685 12.969-.255 25.58-7.742 31.67-19.258 5.398-9.438 6.922-20.84 4.725-31.458-2.298-13.991-13.543-26.225-27.386-29.441-4.606-.848-9.333-.962-14.005-.925" style="fill:#010101;fill-opacity:1;stroke:none" transform="matrix(.96767 0 0 .94944 -278.802 -506.745)"/><path d="M329.886 534.826c-5.566-.114-15.213 3.266-19.124 5.049 3.125-2.195 5.799-3.848 6.929-4.823-4.867.589-10.89 1.523-18.407 9.41-7.357 6.542-7.207 14.818-6.225 16.68.387.737 1.315-2.288 2.602-3.33.785 7.503-1.909 16.626-1.359 24.078.994 5.936 3.24 8.72 5.554 12.003.45 5.48.395 7.457 4.993 11.236 12.071 6.938 17.6 9.692 27.354 9.773 5.277-.32 15.132-3.798 19.102-7.027 9.025-7.338 14.923-17.495 13.268-27.228-.269-1.58 1.737 3.115 2.063 1.5 1.762-5.951.005-15.304-1.713-20.267-2.793-7.852-8.324-10.373-15.293-18.8-2.205-2.307-4.67-4.4-10.42-6.585-2.035-1.153-6.974-2.15-9.324-1.669" style="fill:url(#w);fill-opacity:1;stroke:none" transform="matrix(.96767 0 0 .94944 -278.802 -506.745)"/><path d="M345.246 557.394c-5.219.337.404 8.23 1.837 10.554 2.319 3.76 7.363 1.743 7.9-2.35.51-3.877-1.425-8.597-5.144-7.686-.604.148-3.973-.558-4.593-.518" style="fill:url(#x);fill-opacity:1;stroke:none" transform="matrix(.96767 0 0 .94944 -278.802 -506.745)"/><path d="M318.17 547.663c-4.4.04-7.185 8.566-.518 6.109 1.915-.706 4.225-6.143.518-6.11" style="fill:url(#y);fill-opacity:1;stroke:none" transform="matrix(.96767 0 0 .94944 -278.802 -506.745)"/><path d="M307.547 564.02c-4.95 2.503-8.038 7.738-10.599 12.558-1.853 3.487-2.01 8.809 1 11.402 2.496 2.15 9.05.079 10.509-3.264 4.244-9.726 2.916-16.693 1.6-18.24-.759-.892-1.372-3.032-2.51-2.457" style="fill:url(#z);fill-opacity:1;stroke:none" transform="matrix(.96767 0 0 .94944 -278.802 -506.745)"/><path d="M361.883 559.266c-2.415 3.304-1.932 7.838-3.406 11.58-1.65 4.274-3.518 8.79-7.563 11.338-6.329 3.312-5.245.526-10.462-1.22-3.469-.006-5.87 3.23-7.693 5.863-2.846 3.982-4.513 9.041-8.356 12.102-3.98 2.973-8.797 4.538-13.079 6.932-1.287 1.306.616 2.875 1.765 3.37 4.127 2.369 8.975 2.031 13.529 1.678 7.448-.52 14.803-3.047 21.099-7.11 2.893-2.521 6.435-4.48 8.757-7.58 1.634-4.455 4.126-8.846 3.919-13.8.155-4.123-.02-8.565 2.537-12.017 1.733-2.674 3.332-6.254 1.426-9.274-.568-.861-1.47-1.639-2.473-1.862" style="fill:url(#A);fill-opacity:1;stroke:none" transform="matrix(.96767 0 0 .94944 -278.802 -506.745)"/><path d="M358.059 595.447c-6.47 7.004-17.562 16.3-36.422 16.056 1.836 1.997 7.036 1.216 9.495 1.177 8.542-1.307 24.894-8.207 26.927-17.233" style="fill:url(#B);fill-opacity:1;stroke:none" transform="matrix(.96767 0 0 .94944 -278.802 -506.745)"/><path d="M364.59 569.217c-3.806 3.279-4.047 13.234-3.606 15.612.98-3.607 1.713-9.097 3.605-15.612" style="fill:url(#C);fill-opacity:1;stroke:none" transform="matrix(.96767 0 0 .94944 -278.802 -506.745)"/><path d="M288.615 580.78c2.563.265 2.185-4.102 2.136-5.569-3.67-3.247-2.41 3.452-2.136 5.568" style="fill:url(#D);stroke:none" transform="matrix(.96767 0 0 .94944 -278.802 -506.745)"/><path d="M345.93 583.722c7.74 2.617 13.368-6.356 13.096-14.831-2.391 6.434-4.784 9.223-13.096 14.83" style="fill:url(#E);fill-opacity:1;stroke:none" transform="matrix(.96767 0 0 .94944 -278.802 -506.745)"/><g style="fill:#fff;fill-opacity:1"><path d="M422.749 567.737c3.42-.162 7.777-2.614 9.528-4.278 1.75-1.663.896-2.54-.959-3.488-3.224.701-9.907 4.137-13.085 5.51-1.1.962-.044-9.774-1.263-12.55-1.381-3.093-2.904-2.546-3.66-.225-.612 6.726-.033 36.646-.013 42.735 1.404 2.55 2.509 2.283 4.076.155 1.105-3.793-.768-28.765 1.32-26.154 4.739 3.33 8.274 8.415 11.563 12.72 2.867 3.752 7.022 13.413 15.295 3.345-4.323 0-7.83-2.055-15.153-9.808M394.65 565.578c-.988.46-1.012 2.854-.396 3.096 5.214.136 9.847-.131 12.852.106-5.015 10.466-9.619 14.796-18.901 16.385 2.269 8.803 11.967 1.045 14.38-2.064 2.816-3.626 7.976-8.127 9.073-17.588-6.618-.144-11.261-.095-17.008.065" style="fill:#fff;fill-opacity:1;stroke:none" transform="matrix(1.02452 0 0 1.00523 -386.636 -534.79)"/></g><g style="fill:#fff;fill-opacity:1"><path d="M359.88 545.458c-.119.256.045.568.37.547.792.155 1.04 1.006 1.242 1.637.856 2.655 1.641 5.34 2.444 8.014.202.124.618.084.826-.028 1.015-2.53 1.994-5.073 3.034-7.594 1.032 2.518 1.983 5.075 3.026 7.582.197.184.546.109.782.074 1.05-3.016 1.976-6.077 3.074-9.079.164-.416.626-.543 1.011-.708.202-.145.205-.595-.153-.48-1.065.016-2.146-.033-3.201.023-.183.218.03.58.342.533.388-.006.97.206.886.66-.25 1.164-.682 2.305-1.021 3.455-.334 1.025-.649 2.049-1.01 3.063-1.022-2.501-2.012-5.013-3.015-7.521-.184-.093-.68-.224-.743.074-.99 2.483-1.961 4.992-2.964 7.458-.616-2.093-1.315-4.172-1.826-6.287-.075-.274-.102-.653.24-.78.25-.192.81-.02.85-.403.09-.447-.519-.224-.788-.276-1.124.016-2.263-.032-3.378.024zM379.344 545.286c-1.262 3.063-2.44 6.184-3.81 9.2-.188.407-.618.649-1.059.765-.205.149-.146.592.195.475.93-.024 1.882.048 2.798-.036.141-.264-.081-.526-.376-.537-.448-.099-.548-.599-.37-.942.2-.605.44-1.215.662-1.82h3.856c.247.816.674 1.598.745 2.445-.032.406-.594.274-.861.448-.158.17-.092.55.23.442 1.155-.016 2.325.032 3.47-.024.155-.213-.031-.56-.337-.554-.589-.138-.652-.797-.884-1.223-1.106-2.848-2.12-5.738-3.18-8.604-.275-.142-.764-.07-1.079-.035m.146 1.92c.493 1.471 1.027 2.986 1.466 4.45a42 42 0 0 1-3.285.007c.607-1.481 1.199-2.999 1.819-4.457zM385.364 545.458c-.16.722-.316 1.457-.433 2.187.138.284.593.093.66-.162.325-.64.81-1.401 1.658-1.417.522-.042 1.047-.023 1.57-.028-.02 2.876.048 5.753-.047 8.627.014.425-.544.524-.892.508-.311-.037-.498.414-.238.553 1.367-.016 2.748.032 4.105-.024.174-.2.012-.54-.29-.505-.345-.035-.928-.078-.895-.535-.096-2.873-.026-5.75-.048-8.623.756.053 1.602-.141 2.284.246.536.35.745.958 1.125 1.425.17.164.55.039.43-.216-.145-.658-.21-1.35-.375-1.993-.326-.128-.75-.024-1.107-.066-2.474-.022-4.948-.01-7.422-.013l-.056.024zM395.51 545.458c-.114.224.016.519.304.504.328.048.922.064.908.499.075 2.616.052 5.236.024 7.853.015.303-.016.72-.396.801-.275.1-.856-.057-.867.368-.048.432.577.173.846.24l6.758-.026c.25-.23.155-.686.267-1.005.05-.542.274-1.09.21-1.632-.189-.254-.544.018-.572.253-.27.685-.637 1.508-1.479 1.68-.856.164-1.804.176-2.64-.06-.495-.153-.358-.749-.404-1.128-.017-1.045-.005-2.09-.01-3.135.653.055 1.347-.057 1.975.13.473.198.503.744.687 1.132.162.17.58.095.46-.198-.016-.963.034-1.94-.025-2.895-.235-.18-.555.039-.547.309a1.01 1.01 0 0 1-1.072.884c-.492.026-.985.027-1.477.04v-4.033c.857.027 1.741-.061 2.584.081.693.273.792 1.064.955 1.662.149.204.69.169.562-.166-.026-.72.052-1.462-.038-2.168-1.607-.06-3.234-.008-4.848-.026-.718.024-1.461-.048-2.165.036zM405.409 545.342c-.117.27.1.566.438.524.335.016.881.09.831.497.088 2.72.05 5.444.014 8.165.103.44-.535.498-.87.528-.285-.012-.528.184-.433.449.24.238.752.04 1.097.105 1.127-.016 2.27.032 3.388-.024.172-.186.02-.528-.284-.503-.373-.07-1.034-.093-1.034-.551-.056-1.138-.013-2.279-.026-3.418h1.374a68 68 0 0 0 2.96 4.097c.389.515 1.163.377 1.757.403.239-.043.67.066.761-.198-.122-.304-.544-.414-.74-.683-1.103-1.075-1.912-2.36-2.834-3.557-.15-.183-.379-.4-.005-.468 1.194-.487 2.059-1.603 1.98-2.791.069-.847-.396-1.697-1.22-2.138-1.12-.611-2.731-.417-3.982-.471-1.045.012-2.106-.033-3.142.022zm4 .59c.649-.017 1.581.012 2.035.478.687.72.582 1.75.438 2.625-.154.67-.9 1.349-1.719 1.423a9.3 9.3 0 0 1-1.633.05c-.054-1.53-.025-3.063-.033-4.595z" style="fill:#fff;fill-opacity:1;stroke:none" transform="matrix(.9845 0 0 .96596 -342.613 -519.226)"/></g></svg>
