<svg xmlns="http://www.w3.org/2000/svg" id="Layer_1" data-name="Layer 1" viewBox="0 0 400 400"><defs><style>.cls-1{fill:#d2b984;stroke-width:0}</style></defs><path d="M62.95 259.62c10.013 5.282 19.409 10.56 29.08 15.27 20.456 9.964 42.187 15.374 64.8 17.544 2.851.274 5.807 1.357 8.334 2.754 8.039 4.44 15.79 9.406 23.872 13.757 3.926 2.114 6.506 4.811 7.628 9.102.68 2.603 1.714 5.114 3.09 9.127.652-2.084 2.726-8.95 2.837-9.406 1.47-6.035 3.233-6.049 9.952-9.809 27.245-15.245 54.118-31.155 81.697-47.15-.369 9.414-1.926 18.087-3.837 26.688-2.898 13.044-7.69 25.452-13.05 37.658-1.525 3.471-3.703 6.045-7.212 7.834-30.654 15.63-62.77 21.2-96.837 14.978-28.088-5.13-52.634-17.301-73.755-36.353-15.53-14.01-27.623-30.635-36.302-49.696-.255-.56-.175-1.272-.297-2.297M199.316 73.186c-1.746 4.581-2.466 6.431-3.464 9.515-1.32 4.075-3.444 6.879-7.041 8.944-20.888 11.99-41.68 24.149-62.516 36.229-1.17.678-2.453 1.161-4.47 2.103.186-2.036.026-3.55.487-4.843 7.933-22.243 20.14-41.653 38.322-56.99 5.431-4.582 11.225-8.731 16.666-13.3 4.08-3.426 8.674-4.79 13.89-5.073 24.547-1.33 47.973 3.045 70.395 13.145 23.33 10.508 42.58 26.067 58.093 46.325 1.74 2.273 3.315 5.981 4.132 9.256-1.263-.925-3.042-2.029-4.356-2.701-26.31-13.463-54.392-15.687-83.194-12.955-3.19.302-5.746-.09-8.443-1.723-6.085-3.686-12.247-7.258-18.516-10.619-3.076-1.648-5.277-4.464-6.314-7.644-.99-3.042-2.032-5.062-3.67-9.669" class="cls-1"/><path d="M289.916 318.684c1.898-6.247 4.016-12.46 5.67-18.794 6.16-23.604 7.623-47.437 3.612-71.608-.894-5.383-.605-11.003-.42-16.498.05-1.503 1.377-3.39 2.675-4.34 3.656-2.675 7.6-4.953 12.165-7.854-2.988-1.766-5.575-3.37-8.231-4.85-4.765-2.656-7.344-6.008-6.913-12.115.66-9.376.15-18.834.177-28.257.005-1.76-.258-3.519-.125-5.73 5.91 2.653 9.851 7.25 13.346 11.682 12.778 16.2 20.176 34.822 24.228 54.897 2.28 11.297 3.48 22.708 3.116 34.23-.092 2.912-.578 5.993-1.685 8.664-9.959 24.037-25.553 43.872-45.576 60.333-.33.27-2.807 2.103-2.601 1.717.187-.353.562-1.477.562-1.477" class="cls-1"/><path d="M348.147 223.827c-1.42-6.086-2.378-11.152-3.79-16.088-8.224-28.743-22.215-53.804-46.964-71.668-11.605-8.376-24.421-14.557-38.158-18.625-6.9-2.043-13.09-5.27-19.82-10.104 6.319 0 11.666-.23 16.987.041 18.875.964 37.394 3.849 55.062 10.937 2.127.854 4.303 1.653 6.298 2.762 17.155 9.537 15.252 6.717 22.622 26.358 2.81 7.491 4.942 15.252 7.117 22.964 3.259 11.554 10.588 19.554 20.977 25.122 2.085 1.117 5.457 1.2 5.506 4.415.05 3.319-3.503 3.266-5.51 4.377-6.567 3.635-11.988 8.412-16.307 14.515-.997 1.408-2.162 2.698-4.02 4.994ZM49.291 181.933c2.7 6.026 5.66 12.927 8.858 19.715 8.882 18.855 20.96 35.418 35.672 50.183 6.127 6.149 13.73 9.916 20.926 14.31 9.754 5.955 19.881 11.847 29.707 17.916-7.053-.265-13.78-2.037-20.5-3.62-21.361-5.032-39.858-15.973-57.767-28.11-1.519-1.029-2.962-1.981-4.508-3.151-2.987-2.263-4.805-4.587-5.83-8.072-1.869-6.356-3.69-12.788-6.322-18.843-3.604-8.287-10.25-13.936-18.146-18.127-1.414-.75-3.05-1.162-4.318-2.092-1.588-1.165-1.22-2.909.101-3.937.344-.268.662-.563 1.049-.802 3.682-2.285 7.504-4.38 10.996-6.926 3.507-2.557 6.685-5.568 10.082-8.444" class="cls-1"/><path d="M100.42 212.65c-.757-3.195-2.76-5.472-5.945-7.262-3.132-1.76-6.253-3.54-9.927-5.622 4.583-2.868 8.267-5.152 11.929-7.47 2.163-1.37 3.39-3.099 3.943-5.28v-44.659l12.715-7.411c1.17-1.495 1.905-3.338 2.322-5.51.602-3.133 1.8-6.155 2.782-9.21 8.399-26.146 23.19-47.684 45.835-63.563 1.042-.73 3.604-2.432 5.745-4.15-2.969.564-5.957 1.479-7.625 2.023-8.925 2.912-17.832 6.013-26.384 9.835-27.02 12.076-47.437 31.748-63.335 56.401-8.287 12.852-13.6 26.935-17.73 41.6-1.253 4.454-1.444 8.419.022 12.687 8.938 26.025 22.608 49.137 42.147 68.64.814.813 1.99 2.065 3.505 3.314z" class="cls-1"/><path d="m199.316 93.184-91.622 53.405v106.979l91.964 53.414 91.948-53.335V146.58c-30.809-17.975-61.288-36.34-92.29-53.395Zm79.714 153.138c-26.26 15.233-52.63 30.529-79.373 46.04l-79.387-46.108v-92.35l79.092-46.101c26.762 14.722 53.073 30.576 79.668 46.093z" class="cls-1"/></svg>
